AtkinsonHyperlegibleMono-BoldItalic.sfdir
StartChar: exclam
Encoding: 33 33 254
Width: 632
GlyphClass: 1
Flags: W
LayerCount: 2
Fore
SplineSet
293 495 m 1,0,-1
 330 668 l 1,1,-1
 480 668 l 1,2,-1
 444 495 l 1,3,-1
 360 234 l 1,4,-1
 266 234 l 1,5,-1
 293 495 l 1,0,-1
215.5 15 m 128,-1,7
 189 42 189 42 189 80 c 256,8,9
 189 118 189 118 215.5 144.5 c 128,-1,10
 242 171 242 171 280 171 c 256,11,12
 318 171 318 171 345 144.5 c 128,-1,13
 372 118 372 118 372 80 c 256,14,15
 372 42 372 42 345 15 c 128,-1,16
 318 -12 318 -12 280 -12 c 256,17,6
 242 -12 242 -12 215.5 15 c 128,-1,7
EndSplineSet
EndChar
StartChar: ampersand
Encoding: 38 38 289
Width: 632
GlyphClass: 1
Flags: W
LayerCount: 2
Fore
SplineSet
113.5 10 m 128,-1,1
 65 33 65 33 37.5 74.5 c 128,-1,2
 10 116 10 116 10 169 c 0,3,4
 10 250 10 250 62 307.5 c 128,-1,5
 114 365 114 365 202 396 c 1,6,7
 171 452 171 452 171 511 c 0,8,9
 171 560 171 560 194.5 604 c 128,-1,10
 218 648 218 648 262.5 675.5 c 128,-1,11
 307 703 307 703 366 703 c 0,12,13
 414 703 414 703 451 682.5 c 128,-1,14
 488 662 488 662 507.5 628 c 128,-1,15
 527 594 527 594 527 554 c 0,16,17
 527 489 527 489 483.5 435 c 128,-1,18
 440 381 440 381 368 351 c 1,19,-1
 440 232 l 1,20,21
 482 284 482 284 504 364 c 1,22,-1
 620 364 l 1,23,24
 597 286 597 286 566 233 c 128,-1,25
 535 180 535 180 493 136 c 1,26,-1
 572 0 l 1,27,-1
 435 0 l 1,28,-1
 406 49 l 1,29,30
 319 -13 319 -13 223 -13 c 0,31,0
 162 -13 162 -13 113.5 10 c 128,-1,1
300 112.5 m 128,-1,33
 326 122 326 122 353 144 c 1,34,-1
 255 309 l 1,35,36
 205 293 205 293 174.5 262 c 128,-1,37
 144 231 144 231 144 186 c 0,38,39
 144 147 144 147 172.5 125 c 128,-1,40
 201 103 201 103 245 103 c 0,41,32
 274 103 274 103 300 112.5 c 128,-1,33
390.5 478 m 128,-1,43
 418 508 418 508 418 542 c 0,44,45
 418 567 418 567 401.5 583 c 128,-1,46
 385 599 385 599 359 599 c 0,47,48
 326 599 326 599 306 576 c 128,-1,49
 286 553 286 553 286 524 c 0,50,51
 286 488 286 488 324 430 c 1,52,42
 363 448 363 448 390.5 478 c 128,-1,43
EndSplineSet
EndChar
StartChar: quotesingle
Encoding: 39 39 285
Width: 632
GlyphClass: 1
Flags: W
LayerCount: 2
Fore
SplineSet
336 668 m 1,0,-1
 475 668 l 1,1,-1
 408 423 l 1,2,-1
 299 423 l 1,3,-1
 336 668 l 1,0,-1
EndSplineSet
EndChar
StartChar: parenright
Encoding: 41 41 269
Width: 632
GlyphClass: 1
Flags: W
LayerCount: 2
Fore
SplineSet
272 72.5 m 128,-1,1
 367 207 367 207 367 356 c 0,2,3
 367 443 367 443 334.5 532.5 c 128,-1,4
 302 622 302 622 240 708 c 1,5,-1
 390 708 l 1,6,7
 446 627 446 627 475 538.5 c 128,-1,8
 504 450 504 450 504 361 c 0,9,10
 504 211 504 211 425.5 77 c 128,-1,11
 347 -57 347 -57 203 -162 c 1,12,-1
 27 -162 l 1,13,0
 177 -62 177 -62 272 72.5 c 128,-1,1
EndSplineSet
EndChar
StartChar: comma
Encoding: 44 44 250
Width: 632
GlyphClass: 1
Flags: W
LayerCount: 2
Fore
SplineSet
198 34 m 128,-1,1
 182 60 182 60 182 89 c 0,2,3
 182 132 182 132 211.5 161.5 c 128,-1,4
 241 191 241 191 284 191 c 0,5,6
 324 191 324 191 353.5 162.5 c 128,-1,7
 383 134 383 134 383 95 c 0,8,9
 383 77 383 77 377.5 61.5 c 128,-1,10
 372 46 372 46 360 28 c 2,11,-1
 243 -157 l 1,12,-1
 144 -157 l 1,13,-1
 243 -3 l 1,14,0
 214 8 214 8 198 34 c 128,-1,1
EndSplineSet
EndChar
StartChar: hyphen
Encoding: 45 45 264
Width: 632
GlyphClass: 1
Flags: W
LayerCount: 2
Fore
SplineSet
169 309 m 1,0,-1
 489 309 l 1,1,-1
 463 188 l 1,2,-1
 143 188 l 1,3,-1
 169 309 l 1,0,-1
EndSplineSet
EndChar
StartChar: period
Encoding: 46 46 249
Width: 632
GlyphClass: 1
Flags: W
LayerCount: 2
Fore
SplineSet
211 18 m 128,-1,1
 181 48 181 48 181 89 c 0,2,3
 181 131 181 131 211 161 c 128,-1,4
 241 191 241 191 282 191 c 0,5,6
 324 191 324 191 353.5 161 c 128,-1,7
 383 131 383 131 383 89 c 0,8,9
 383 48 383 48 353.5 18 c 128,-1,10
 324 -12 324 -12 282 -12 c 0,11,0
 241 -12 241 -12 211 18 c 128,-1,1
EndSplineSet
EndChar
StartChar: one
Encoding: 49 49 230
Width: 632
GlyphClass: 5
Flags: W
LayerCount: 2
Fore
SplineSet
76 114 m 1,0,-1
 230 114 l 1,1,-1
 304 458 l 1,2,-1
 149 458 l 1,3,-1
 173 571 l 1,4,5
 244 571 244 571 276.5 576.5 c 128,-1,6
 309 582 309 582 331 601.5 c 128,-1,7
 353 621 353 621 381 668 c 1,8,-1
 487 668 l 1,9,-1
 369 114 l 1,10,-1
 501 114 l 1,11,-1
 477 0 l 1,12,-1
 52 0 l 1,13,-1
 76 114 l 1,0,-1
EndSplineSet
Substitution2: "'sups' Superscript in Latin lookup 6 subtable" uni00B9
AlternateSubs2: "'aalt' Access All Alternates in Latin lookup 0 subtable" uni00B9
EndChar
StartChar: three
Encoding: 51 51 232
Width: 632
GlyphClass: 5
Flags: W
LayerCount: 2
Fore
SplineSet
132.5 28 m 128,-1,1
 66 68 66 68 47 145 c 1,2,-1
 177 188 l 1,3,4
 184 140 184 140 218 116.5 c 128,-1,5
 252 93 252 93 299 93 c 0,6,7
 349 93 349 93 382.5 123.5 c 128,-1,8
 416 154 416 154 416 201 c 0,9,10
 416 246 416 246 376 271.5 c 128,-1,11
 336 297 336 297 273 297 c 2,12,-1
 252 297 l 1,13,-1
 273 394 l 1,14,-1
 341 394 l 2,15,16
 398 394 398 394 433 422.5 c 128,-1,17
 468 451 468 451 468 496 c 0,18,19
 468 532 468 532 438 553.5 c 128,-1,20
 408 575 408 575 366 575 c 0,21,22
 321 575 321 575 289 553.5 c 128,-1,23
 257 532 257 532 242 489 c 1,24,-1
 119 537 l 1,25,26
 155 611 155 611 223 645.5 c 128,-1,27
 291 680 291 680 372 680 c 0,28,29
 434 680 434 680 489 661.5 c 128,-1,30
 544 643 544 643 578 605.5 c 128,-1,31
 612 568 612 568 612 513 c 0,32,33
 612 449 612 449 572.5 401 c 128,-1,34
 533 353 533 353 467 336 c 1,35,36
 512 317 512 317 535.5 281 c 128,-1,37
 559 245 559 245 559 201 c 0,38,39
 559 137 559 137 522.5 88.5 c 128,-1,40
 486 40 486 40 424.5 14 c 128,-1,41
 363 -12 363 -12 290 -12 c 0,42,0
 199 -12 199 -12 132.5 28 c 128,-1,1
EndSplineSet
Substitution2: "'sups' Superscript in Latin lookup 6 subtable" uni00B3
AlternateSubs2: "'aalt' Access All Alternates in Latin lookup 0 subtable" uni00B3
EndChar
StartChar: equal
Encoding: 61 61 315
Width: 632
GlyphClass: 1
Flags: W
LayerCount: 2
Fore
SplineSet
94 404 m 1,0,-1
 604 404 l 1,1,-1
 579 286 l 1,2,-1
 69 286 l 1,3,-1
 94 404 l 1,0,-1
55 220 m 1,4,-1
 565 220 l 1,5,-1
 540 101 l 1,6,-1
 30 101 l 1,7,-1
 55 220 l 1,4,-1
EndSplineSet
EndChar
StartChar: greater
Encoding: 62 62 317
Width: 632
GlyphClass: 1
Flags: W
LayerCount: 2
Fore
SplineSet
46 131 m 1,0,-1
 407 258 l 1,1,-1
 101 384 l 1,2,-1
 127 507 l 1,3,-1
 571 295 l 1,4,-1
 551 203 l 1,5,-1
 17 -9 l 1,6,-1
 46 131 l 1,0,-1
EndSplineSet
EndChar
StartChar: at
Encoding: 64 64 288
Width: 632
GlyphClass: 1
Flags: W
LayerCount: 2
Fore
SplineSet
131.5 -63 m 128,-1,1
 71 -25 71 -25 39 41.5 c 128,-1,2
 7 108 7 108 7 190 c 0,3,4
 7 296 7 296 53 393 c 128,-1,5
 99 490 99 490 181.5 549.5 c 128,-1,6
 264 609 264 609 368 609 c 0,7,8
 453 609 453 609 513 573.5 c 128,-1,9
 573 538 573 538 604 476.5 c 128,-1,10
 635 415 635 415 635 340 c 0,11,12
 635 284 635 284 615.5 221.5 c 128,-1,13
 596 159 596 159 555.5 116 c 128,-1,14
 515 73 515 73 456 73 c 0,15,16
 429 73 429 73 404.5 88.5 c 128,-1,17
 380 104 380 104 370 131 c 1,18,19
 323 75 323 75 267 75 c 0,20,21
 212 75 212 75 182 115.5 c 128,-1,22
 152 156 152 156 152 214 c 0,23,24
 152 268 152 268 176.5 320 c 128,-1,25
 201 372 201 372 246 405 c 128,-1,26
 291 438 291 438 351 438 c 0,27,28
 381 438 381 438 418 429 c 128,-1,29
 455 420 455 420 486 406 c 1,30,-1
 447 225 l 2,31,32
 444 212 444 212 444 193 c 0,33,34
 444 147 444 147 476 147 c 0,35,36
 503 147 503 147 522 180 c 128,-1,37
 541 213 541 213 550.5 258.5 c 128,-1,38
 560 304 560 304 560 337 c 0,39,40
 560 427 560 427 508.5 483.5 c 128,-1,41
 457 540 457 540 360 540 c 0,42,43
 272 540 272 540 209.5 486 c 128,-1,44
 147 432 147 432 116 352 c 128,-1,45
 85 272 85 272 85 195 c 0,46,47
 85 95 85 95 137 31.5 c 128,-1,48
 189 -32 189 -32 287 -32 c 0,49,50
 334 -32 334 -32 385 -8 c 1,51,-1
 369 -84 l 1,52,53
 323 -101 323 -101 275 -101 c 0,54,0
 192 -101 192 -101 131.5 -63 c 128,-1,1
340.5 181 m 128,-1,56
 363 203 363 203 372 242 c 2,57,-1
 394 348 l 1,58,59
 367 358 367 358 345 358 c 0,60,61
 311 358 311 358 288 336 c 128,-1,62
 265 314 265 314 254 282 c 128,-1,63
 243 250 243 250 243 222 c 256,64,65
 243 194 243 194 255 176.5 c 128,-1,66
 267 159 267 159 293 159 c 0,67,55
 318 159 318 159 340.5 181 c 128,-1,56
EndSplineSet
EndChar
StartChar: C
Encoding: 67 67 14
Width: 632
GlyphClass: 2
Flags: W
AnchorPoint: "Anchor-1" 428 668 basechar 0
AnchorPoint: "Anchor-0" 313 0 basechar 0
LayerCount: 2
Fore
SplineSet
127.5 62.5 m 128,-1,1
 65 137 65 137 65 258 c 0,2,3
 65 355 65 355 103 452.5 c 128,-1,4
 141 550 141 550 217 615 c 128,-1,5
 293 680 293 680 402 680 c 0,6,7
 486 680 486 680 543.5 637.5 c 128,-1,8
 601 595 601 595 622 518 c 1,9,-1
 507 479 l 1,10,11
 496 519 496 519 468.5 541.5 c 128,-1,12
 441 564 441 564 400 564 c 0,13,14
 337 564 337 564 293 514.5 c 128,-1,15
 249 465 249 465 227.5 395 c 128,-1,16
 206 325 206 325 206 265 c 0,17,18
 206 194 206 194 237 149 c 128,-1,19
 268 104 268 104 331 104 c 0,20,21
 366 104 366 104 399.5 123.5 c 128,-1,22
 433 143 433 143 458 186 c 1,23,-1
 570 140 l 1,24,25
 523 67 523 67 456.5 27.5 c 128,-1,26
 390 -12 390 -12 312 -12 c 0,27,0
 190 -12 190 -12 127.5 62.5 c 128,-1,1
EndSplineSet
EndChar
StartChar: F
Encoding: 70 70 32
Width: 632
GlyphClass: 2
Flags: W
AnchorPoint: "Anchor-1" 400 668 basechar 0
AnchorPoint: "Anchor-0" 258 0 basechar 0
LayerCount: 2
Fore
SplineSet
192 668 m 1,0,-1
 648 668 l 1,1,-1
 621 540 l 1,2,-1
 310 540 l 1,3,-1
 275 380 l 1,4,-1
 582 380 l 1,5,-1
 555 252 l 1,6,-1
 249 252 l 1,7,-1
 195 0 l 1,8,-1
 50 0 l 1,9,-1
 192 668 l 1,0,-1
EndSplineSet
EndChar
StartChar: I
Encoding: 73 73 39
Width: 632
GlyphClass: 2
Flags: W
AnchorPoint: "Anchor-2" 465 10 basechar 0
AnchorPoint: "Anchor-1" 405 668 basechar 0
AnchorPoint: "Anchor-0" 263 0 basechar 0
LayerCount: 2
Fore
SplineSet
86 106 m 1,0,-1
 213 106 l 1,1,-1
 310 562 l 1,2,-1
 183 562 l 1,3,-1
 205 668 l 1,4,-1
 605 668 l 1,5,-1
 582 562 l 1,6,-1
 455 562 l 1,7,-1
 358 106 l 1,8,-1
 485 106 l 1,9,-1
 463 0 l 1,10,-1
 63 0 l 1,11,-1
 86 106 l 1,0,-1
EndSplineSet
EndChar
StartChar: P
Encoding: 80 80 71
Width: 632
GlyphClass: 2
Flags: W
AnchorPoint: "Anchor-1" 415 668 basechar 0
AnchorPoint: "Anchor-0" 273 0 basechar 0
LayerCount: 2
Fore
SplineSet
167 668 m 1,0,-1
 404 668 l 2,1,2
 513 668 513 668 578 617.5 c 128,-1,3
 643 567 643 567 643 479 c 0,4,5
 643 409 643 409 611 354 c 128,-1,6
 579 299 579 299 519.5 268 c 128,-1,7
 460 237 460 237 381 237 c 2,8,-1
 208 237 l 1,9,-1
 158 0 l 1,10,-1
 25 0 l 1,11,-1
 167 668 l 1,0,-1
473.5 384.5 m 128,-1,13
 504 417 504 417 504 466 c 0,14,15
 504 508 504 508 474.5 530.5 c 128,-1,16
 445 553 445 553 393 553 c 2,17,-1
 276 553 l 1,18,-1
 233 352 l 1,19,-1
 381 352 l 2,20,12
 443 352 443 352 473.5 384.5 c 128,-1,13
EndSplineSet
EndChar
StartChar: U
Encoding: 85 85 87
Width: 632
GlyphClass: 2
Flags: W
AnchorPoint: "Anchor-3" 719 668 basechar 0
AnchorPoint: "Anchor-1" 403 668 basechar 0
LayerCount: 2
Fore
SplineSet
118.5 37 m 128,-1,1
 55 86 55 86 55 189 c 0,2,3
 55 234 55 234 67 289 c 2,4,-1
 147 668 l 1,5,-1
 293 668 l 1,6,-1
 205 255 l 2,7,8
 198 220 198 220 198 200 c 0,9,10
 198 106 198 106 305 106 c 0,11,12
 357 106 357 106 384 137 c 128,-1,13
 411 168 411 168 425 231 c 2,14,-1
 517 668 l 1,15,-1
 663 668 l 1,16,-1
 571 236 l 2,17,18
 544 108 544 108 481.5 48 c 128,-1,19
 419 -12 419 -12 308 -12 c 0,20,0
 182 -12 182 -12 118.5 37 c 128,-1,1
EndSplineSet
EndChar
StartChar: W
Encoding: 87 87 97
Width: 632
GlyphClass: 2
Flags: W
AnchorPoint: "Anchor-1" 403 668 basechar 0
AnchorPoint: "Anchor-0" 264 0 basechar 0
LayerCount: 2
Fore
SplineSet
97 668 m 1,0,-1
 208 668 l 1,1,-1
 163 181 l 1,2,-1
 167 181 l 1,3,-1
 340 668 l 1,4,-1
 466 668 l 1,5,-1
 432 181 l 1,6,-1
 436 181 l 1,7,-1
 597 668 l 1,8,-1
 713 668 l 1,9,-1
 463 0 l 1,10,-1
 333 0 l 1,11,-1
 369 489 l 1,12,-1
 365 489 l 1,13,-1
 194 0 l 1,14,-1
 64 0 l 1,15,-1
 97 668 l 1,0,-1
EndSplineSet
EndChar
StartChar: asciicircum
Encoding: 94 94 325
Width: 632
GlyphClass: 1
Flags: W
LayerCount: 2
Fore
SplineSet
352 668 m 1,0,-1
 458 668 l 1,1,-1
 567 311 l 1,2,-1
 439 311 l 1,3,-1
 379 520 l 1,4,-1
 228 311 l 1,5,-1
 91 311 l 1,6,-1
 352 668 l 1,0,-1
EndSplineSet
EndChar
StartChar: a
Encoding: 97 97 112
Width: 632
GlyphClass: 2
Flags: W
AnchorPoint: "Anchor-2" 504 10 basechar 0
AnchorPoint: "Anchor-1" 368 496 basechar 0
AnchorPoint: "Anchor-0" 262 0 basechar 0
LayerCount: 2
Fore
SplineSet
88 23 m 128,-1,1
 40 58 40 58 40 119 c 0,2,3
 40 215 40 215 131 260.5 c 128,-1,4
 222 306 222 306 418 314 c 1,5,-1
 419 318 l 2,6,7
 422 332 422 332 422 343 c 0,8,9
 422 376 422 376 399.5 395.5 c 128,-1,10
 377 415 377 415 334 415 c 0,11,12
 297 415 297 415 268.5 398 c 128,-1,13
 240 381 240 381 230 353 c 1,14,-1
 111 396 l 1,15,16
 141 448 141 448 200.5 479 c 128,-1,17
 260 510 260 510 336 510 c 0,18,19
 437 510 437 510 494.5 469.5 c 128,-1,20
 552 429 552 429 552 349 c 0,21,22
 552 318 552 318 545 289 c 2,23,-1
 524 187 l 2,24,25
 512 132 512 132 506 81.5 c 128,-1,26
 500 31 500 31 502 0 c 1,27,-1
 374 0 l 1,28,-1
 370 54 l 1,29,30
 338 20 338 20 295.5 4 c 128,-1,31
 253 -12 253 -12 208 -12 c 0,32,0
 136 -12 136 -12 88 23 c 128,-1,1
342.5 110.5 m 128,-1,34
 379 139 379 139 391 190 c 2,35,-1
 399 229 l 1,36,37
 184 221 184 221 184 137 c 0,38,39
 184 111 184 111 205 96.5 c 128,-1,40
 226 82 226 82 259 82 c 0,41,33
 306 82 306 82 342.5 110.5 c 128,-1,34
EndSplineSet
Substitution2: "Single Substitution lookup 14 subtable" ordfeminine
AlternateSubs2: "'aalt' Access All Alternates in Latin lookup 0 subtable" ordfeminine
EndChar
StartChar: b
Encoding: 98 98 123
Width: 632
GlyphClass: 2
Flags: W
AnchorPoint: "Anchor-1" 365 496 basechar 0
AnchorPoint: "Anchor-0" 260 0 basechar 0
LayerCount: 2
Fore
SplineSet
229.5 12 m 128,-1,1
 189 36 189 36 173 76 c 1,2,-1
 139 0 l 1,3,-1
 16 0 l 1,4,-1
 167 708 l 1,5,-1
 308 708 l 1,6,-1
 248 435 l 1,7,8
 276 468 276 468 321 489 c 128,-1,9
 366 510 366 510 413 510 c 0,10,11
 496 510 496 510 544 452.5 c 128,-1,12
 592 395 592 395 592 303 c 0,13,14
 592 221 592 221 560 149 c 128,-1,15
 528 77 528 77 467.5 32.5 c 128,-1,16
 407 -12 407 -12 325 -12 c 0,17,0
 270 -12 270 -12 229.5 12 c 128,-1,1
382 129 m 128,-1,19
 416 160 416 160 432 204 c 128,-1,20
 448 248 448 248 448 287 c 0,21,22
 448 338 448 338 422.5 369.5 c 128,-1,23
 397 401 397 401 350 401 c 0,24,25
 299 401 299 401 264.5 369 c 128,-1,26
 230 337 230 337 213.5 291.5 c 128,-1,27
 197 246 197 246 197 204 c 0,28,29
 197 154 197 154 222.5 126 c 128,-1,30
 248 98 248 98 297 98 c 0,31,18
 348 98 348 98 382 129 c 128,-1,19
EndSplineSet
EndChar
StartChar: c
Encoding: 99 99 124
Width: 632
GlyphClass: 2
Flags: W
AnchorPoint: "Anchor-1" 393 496 basechar 0
AnchorPoint: "Anchor-0" 290 0 basechar 0
LayerCount: 2
Fore
SplineSet
142.5 46.5 m 128,-1,1
 77 105 77 105 77 208 c 0,2,3
 77 293 77 293 113.5 362 c 128,-1,4
 150 431 150 431 216.5 470.5 c 128,-1,5
 283 510 283 510 368 510 c 0,6,7
 444 510 444 510 505.5 477.5 c 128,-1,8
 567 445 567 445 591 379 c 1,9,-1
 474 338 l 1,10,11
 463 369 463 369 434.5 385 c 128,-1,12
 406 401 406 401 371 401 c 0,13,14
 321 401 321 401 287 373 c 128,-1,15
 253 345 253 345 236.5 302.5 c 128,-1,16
 220 260 220 260 220 216 c 0,17,18
 220 161 220 161 249 129 c 128,-1,19
 278 97 278 97 337 97 c 0,20,21
 371 97 371 97 398.5 109.5 c 128,-1,22
 426 122 426 122 440 147 c 1,23,-1
 555 102 l 1,24,25
 519 47 519 47 457 17.5 c 128,-1,26
 395 -12 395 -12 323 -12 c 0,27,0
 208 -12 208 -12 142.5 46.5 c 128,-1,1
EndSplineSet
EndChar
StartChar: e
Encoding: 101 101 133
Width: 632
GlyphClass: 2
Flags: W
AnchorPoint: "Anchor-2" 468 7 basechar 0
AnchorPoint: "Anchor-1" 377 496 basechar 0
AnchorPoint: "Anchor-0" 266 0 basechar 0
LayerCount: 2
Fore
SplineSet
179.5 15 m 128,-1,1
 124 42 124 42 93 92.5 c 128,-1,2
 62 143 62 143 62 211 c 0,3,4
 62 293 62 293 100 361.5 c 128,-1,5
 138 430 138 430 204.5 470 c 128,-1,6
 271 510 271 510 352 510 c 0,7,8
 425 510 425 510 476.5 481 c 128,-1,9
 528 452 528 452 554.5 401.5 c 128,-1,10
 581 351 581 351 581 286 c 0,11,12
 581 254 581 254 573 214 c 1,13,-1
 195 214 l 1,14,15
 197 157 197 157 229.5 127 c 128,-1,16
 262 97 262 97 322 97 c 0,17,18
 383 97 383 97 419 136 c 1,19,-1
 526 92 l 1,20,21
 486 41 486 41 429 14.5 c 128,-1,22
 372 -12 372 -12 306 -12 c 0,23,0
 235 -12 235 -12 179.5 15 c 128,-1,1
430.5 375.5 m 128,-1,25
 401 405 401 405 347 405 c 256,26,27
 293 405 293 405 258.5 375 c 128,-1,28
 224 345 224 345 207 298 c 1,29,-1
 458 298 l 1,30,24
 460 346 460 346 430.5 375.5 c 128,-1,25
EndSplineSet
EndChar
StartChar: f
Encoding: 102 102 142
Width: 632
GlyphClass: 2
Flags: W
AnchorPoint: "Anchor-1" 412 796 basechar 0
AnchorPoint: "Anchor-0" 243 0 basechar 0
LayerCount: 2
Fore
SplineSet
256 389 m 1,0,-1
 119 389 l 1,1,-1
 142 496 l 1,2,-1
 278 496 l 1,3,-1
 298 588 l 2,4,5
 310 644 310 644 332.5 672 c 128,-1,6
 355 700 355 700 389 709 c 128,-1,7
 423 718 423 718 479 718 c 2,8,-1
 690 718 l 1,9,-1
 667 606 l 1,10,-1
 486 606 l 2,11,12
 460 606 460 606 449.5 598 c 128,-1,13
 439 590 439 590 433 563 c 2,14,-1
 419 496 l 1,15,-1
 544 496 l 1,16,-1
 522 389 l 1,17,-1
 397 389 l 1,18,-1
 314 0 l 1,19,-1
 173 0 l 1,20,-1
 256 389 l 1,0,-1
EndSplineSet
EndChar
StartChar: h
Encoding: 104 104 147
Width: 632
GlyphClass: 2
Flags: W
AnchorPoint: "Anchor-1" 434 796 basechar 0
AnchorPoint: "Anchor-0" 265 0 basechar 0
LayerCount: 2
Fore
SplineSet
182 708 m 1,0,-1
 323 708 l 1,1,-1
 264 429 l 1,2,3
 289 460 289 460 334 485 c 128,-1,4
 379 510 379 510 430 510 c 0,5,6
 503 510 503 510 538.5 474 c 128,-1,7
 574 438 574 438 574 372 c 0,8,9
 574 342 574 342 566 302 c 2,10,-1
 502 0 l 1,11,-1
 361 0 l 1,12,-1
 421 281 l 2,13,14
 426 309 426 309 426 328 c 0,15,16
 426 401 426 401 357 401 c 0,17,18
 310 401 310 401 275.5 362 c 128,-1,19
 241 323 241 323 226 253 c 2,20,-1
 173 0 l 1,21,-1
 32 0 l 1,22,-1
 182 708 l 1,0,-1
EndSplineSet
EndChar
StartChar: l
Encoding: 108 108 163
Width: 632
GlyphClass: 2
Flags: W
AnchorPoint: "Anchor-3" 434 497 basechar 0
AnchorPoint: "Anchor-1" 411 796 basechar 0
AnchorPoint: "Anchor-0" 334 0 basechar 0
LayerCount: 2
Fore
SplineSet
205 21.5 m 128,-1,1
 168 43 168 43 168 95 c 0,2,3
 168 113 168 113 175 150 c 2,4,-1
 271 601 l 1,5,-1
 156 601 l 1,6,-1
 178 708 l 1,7,-1
 434 708 l 1,8,-1
 322 179 l 2,9,10
 318 163 318 163 318 148 c 0,11,12
 318 128 318 128 331.5 119.5 c 128,-1,13
 345 111 345 111 381 111 c 2,14,-1
 543 111 l 1,15,-1
 520 0 l 1,16,-1
 332 0 l 2,17,0
 242 0 242 0 205 21.5 c 128,-1,1
EndSplineSet
EndChar
StartChar: o
Encoding: 111 111 173
Width: 632
GlyphClass: 2
Flags: W
AnchorPoint: "Anchor-3" 639 496 basechar 0
AnchorPoint: "Anchor-2" 499 10 basechar 0
AnchorPoint: "Anchor-1" 366 496 basechar 0
AnchorPoint: "Anchor-0" 264 0 basechar 0
LayerCount: 2
Fore
SplineSet
165.5 16 m 128,-1,1
 111 44 111 44 81 94.5 c 128,-1,2
 51 145 51 145 51 211 c 0,3,4
 51 296 51 296 88 364.5 c 128,-1,5
 125 433 125 433 191 471.5 c 128,-1,6
 257 510 257 510 343 510 c 0,7,8
 413 510 413 510 467.5 482 c 128,-1,9
 522 454 522 454 552 403 c 128,-1,10
 582 352 582 352 582 286 c 0,11,12
 582 201 582 201 545.5 133 c 128,-1,13
 509 65 509 65 442.5 26.5 c 128,-1,14
 376 -12 376 -12 290 -12 c 0,15,0
 220 -12 220 -12 165.5 16 c 128,-1,1
376 126.5 m 128,-1,17
 408 156 408 156 423.5 200 c 128,-1,18
 439 244 439 244 439 287 c 0,19,20
 439 339 439 339 414 370 c 128,-1,21
 389 401 389 401 337 401 c 0,22,23
 289 401 289 401 257 371.5 c 128,-1,24
 225 342 225 342 210 298 c 128,-1,25
 195 254 195 254 195 211 c 0,26,27
 195 159 195 159 219.5 128 c 128,-1,28
 244 97 244 97 296 97 c 0,29,16
 344 97 344 97 376 126.5 c 128,-1,17
EndSplineSet
Substitution2: "Single Substitution lookup 14 subtable" ordmasculine
AlternateSubs2: "'aalt' Access All Alternates in Latin lookup 0 subtable" ordmasculine
EndChar
StartChar: q
Encoding: 113 113 184
Width: 632
GlyphClass: 2
Flags: W
AnchorPoint: "Anchor-1" 375 496 basechar 0
AnchorPoint: "Anchor-0" 270 0 basechar 0
LayerCount: 2
Fore
SplineSet
338 -61 m 0,1,2
 338 -33 338 -33 345 -4 c 2,3,-1
 360 65 l 1,4,5
 331 28 331 28 287.5 8 c 128,-1,6
 244 -12 244 -12 200 -12 c 0,7,8
 126 -12 126 -12 82 42 c 128,-1,9
 38 96 38 96 38 186 c 0,10,11
 38 262 38 262 66.5 337 c 128,-1,12
 95 412 95 412 153 461 c 128,-1,13
 211 510 211 510 294 510 c 0,14,15
 343 510 343 510 381 486.5 c 128,-1,16
 419 463 419 463 436 420 c 1,17,-1
 470 496 l 1,18,-1
 593 496 l 1,19,-1
 491 18 l 2,20,21
 487 1 487 1 487 -16 c 0,22,23
 487 -36 487 -36 496.5 -45.5 c 128,-1,24
 506 -55 506 -55 527 -55 c 0,25,26
 545 -55 545 -55 569 -47 c 1,27,-1
 544 -164 l 1,28,29
 512 -174 512 -174 475 -174 c 0,30,0
 338 -174 338 -174 338 -61 c 0,1,2
346 129 m 128,-1,32
 378 160 378 160 394.5 206.5 c 128,-1,33
 411 253 411 253 411 298 c 0,34,35
 411 347 411 347 388.5 374 c 128,-1,36
 366 401 366 401 325 401 c 0,37,38
 278 401 278 401 246 369 c 128,-1,39
 214 337 214 337 198.5 292 c 128,-1,40
 183 247 183 247 183 208 c 0,41,42
 183 160 183 160 206.5 129 c 128,-1,43
 230 98 230 98 271 98 c 0,44,31
 314 98 314 98 346 129 c 128,-1,32
EndSplineSet
EndChar
StartChar: t
Encoding: 116 116 194
Width: 632
GlyphClass: 2
Flags: W
AnchorPoint: "Anchor-3" 433 551 basechar 0
AnchorPoint: "Anchor-1" 340 496 basechar 0
AnchorPoint: "Anchor-0" 283 0 basechar 0
LayerCount: 2
Fore
SplineSet
206.5 22 m 128,-1,1
 170 44 170 44 170 96 c 0,2,3
 170 122 170 122 177 153 c 2,4,-1
 227 389 l 1,5,-1
 127 389 l 1,6,-1
 150 496 l 1,7,-1
 251 496 l 1,8,-1
 277 620 l 1,9,-1
 418 620 l 1,10,-1
 392 496 l 1,11,-1
 595 496 l 1,12,-1
 572 389 l 1,13,-1
 368 389 l 1,14,-1
 323 176 l 2,15,16
 320 161 320 161 320 150 c 0,17,18
 320 128 320 128 334.5 119.5 c 128,-1,19
 349 111 349 111 384 111 c 2,20,-1
 463 111 l 1,21,-1
 439 0 l 1,22,-1
 330 0 l 2,23,0
 243 0 243 0 206.5 22 c 128,-1,1
EndSplineSet
EndChar
StartChar: u
Encoding: 117 117 198
Width: 632
GlyphClass: 2
Flags: W
AnchorPoint: "Anchor-3" 629 496 basechar 0
AnchorPoint: "Anchor-2" 495 10 basechar 0
AnchorPoint: "Anchor-1" 365 496 basechar 0
AnchorPoint: "Anchor-0" 260 0 basechar 0
LayerCount: 2
Fore
SplineSet
98 24 m 128,-1,1
 63 60 63 60 63 126 c 0,2,3
 63 154 63 154 71 194 c 2,4,-1
 136 496 l 1,5,-1
 277 496 l 1,6,-1
 217 215 l 2,7,8
 211 190 211 190 211 168 c 0,9,10
 211 97 211 97 278 97 c 0,11,12
 322 97 322 97 356 136.5 c 128,-1,13
 390 176 390 176 404 244 c 2,14,-1
 458 496 l 1,15,-1
 598 496 l 1,16,-1
 493 0 l 1,17,-1
 372 0 l 1,18,-1
 368 72 l 1,19,20
 336 33 336 33 296.5 10.5 c 128,-1,21
 257 -12 257 -12 204 -12 c 0,22,0
 133 -12 133 -12 98 24 c 128,-1,1
EndSplineSet
EndChar
StartChar: x
Encoding: 120 120 213
Width: 632
GlyphClass: 2
Flags: W
AnchorPoint: "Anchor-1" 370 496 basechar 0
AnchorPoint: "Anchor-0" 264 0 basechar 0
LayerCount: 2
Fore
SplineSet
242 259 m 1,0,-1
 115 496 l 1,1,-1
 265 496 l 1,2,-1
 335 364 l 1,3,-1
 339 364 l 1,4,-1
 465 496 l 1,5,-1
 623 496 l 1,6,-1
 396 258 l 1,7,-1
 531 0 l 1,8,-1
 382 0 l 1,9,-1
 302 153 l 1,10,-1
 298 153 l 1,11,-1
 154 0 l 1,12,-1
 -5 0 l 1,13,-1
 242 259 l 1,0,-1
EndSplineSet
EndChar
StartChar: y
Encoding: 121 121 214
Width: 632
GlyphClass: 2
Flags: W
AnchorPoint: "Anchor-1" 359 496 basechar 0
AnchorPoint: "Anchor-0" 263 0 basechar 0
LayerCount: 2
Fore
SplineSet
14 -58 m 1,0,-1
 87 -58 l 2,1,2
 127 -58 127 -58 146.5 -49.5 c 128,-1,3
 166 -41 166 -41 180 -19 c 2,4,-1
 199 11 l 1,5,-1
 103 496 l 1,6,-1
 249 496 l 1,7,-1
 295 170 l 1,8,-1
 299 170 l 1,9,-1
 480 496 l 1,10,-1
 635 496 l 1,11,-1
 321 -7 l 2,12,13
 281 -73 281 -73 252 -104.5 c 128,-1,14
 223 -136 223 -136 185.5 -149 c 128,-1,15
 148 -162 148 -162 85 -162 c 2,16,-1
 -9 -162 l 1,17,-1
 14 -58 l 1,0,-1
EndSplineSet
EndChar
StartChar: z
Encoding: 122 122 219
Width: 632
GlyphClass: 2
Flags: W
AnchorPoint: "Anchor-1" 380 496 basechar 0
AnchorPoint: "Anchor-0" 262 0 basechar 0
LayerCount: 2
Fore
SplineSet
48 112 m 1,0,-1
 378 384 l 1,1,-1
 120 384 l 1,2,-1
 144 496 l 1,3,-1
 604 496 l 1,4,-1
 580 384 l 1,5,-1
 250 112 l 1,6,-1
 536 112 l 1,7,-1
 512 0 l 1,8,-1
 24 0 l 1,9,-1
 48 112 l 1,0,-1
EndSplineSet
EndChar
StartChar: braceright
Encoding: 125 125 271
Width: 632
GlyphClass: 1
Flags: W
LayerCount: 2
Fore
SplineSet
74 -52 m 1,0,-1
 187 -52 l 2,1,2
 216 -52 216 -52 227 -45 c 128,-1,3
 238 -38 238 -38 243 -13 c 2,4,-1
 279 148 l 2,5,6
 292 206 292 206 319 234.5 c 128,-1,7
 346 263 346 263 397 271 c 1,8,-1
 399 277 l 1,9,10
 363 291 363 291 346 313.5 c 128,-1,11
 329 336 329 336 329 370 c 0,12,13
 329 391 329 391 335 418 c 2,14,-1
 364 550 l 1,15,-1
 366 566 l 2,16,17
 366 583 366 583 353 590.5 c 128,-1,18
 340 598 340 598 310 598 c 2,19,-1
 212 598 l 1,20,-1
 235 708 l 1,21,-1
 344 708 l 2,22,23
 427 708 427 708 464.5 679 c 128,-1,24
 502 650 502 650 502 594 c 0,25,26
 502 573 502 573 495 540 c 2,27,-1
 470 425 l 2,28,29
 466 406 466 406 466 388 c 0,30,31
 466 358 466 358 483.5 344.5 c 128,-1,32
 501 331 501 331 541 329 c 1,33,-1
 517 217 l 1,34,35
 479 216 479 216 458 207 c 128,-1,36
 437 198 437 198 426 178.5 c 128,-1,37
 415 159 415 159 406 122 c 2,38,-1
 374 -26 l 2,39,40
 357 -103 357 -103 318.5 -132.5 c 128,-1,41
 280 -162 280 -162 202 -162 c 2,42,-1
 51 -162 l 1,43,-1
 74 -52 l 1,0,-1
EndSplineSet
EndChar
StartChar: exclamdown
Encoding: 161 161 255
Width: 632
GlyphClass: 1
Flags: W
LayerCount: 2
Fore
SplineSet
189 3 m 1,0,-1
 273 264 l 1,1,-1
 367 264 l 1,2,-1
 340 3 l 1,3,-1
 303 -170 l 1,4,-1
 153 -170 l 1,5,-1
 189 3 l 1,0,-1
288 353.5 m 128,-1,7
 261 380 261 380 261 418 c 256,8,9
 261 456 261 456 288 483 c 128,-1,10
 315 510 315 510 353 510 c 256,11,12
 391 510 391 510 417.5 483 c 128,-1,13
 444 456 444 456 444 418 c 256,14,15
 444 380 444 380 417.5 353.5 c 128,-1,16
 391 327 391 327 353 327 c 256,17,6
 315 327 315 327 288 353.5 c 128,-1,7
EndSplineSet
EndChar
StartChar: sterling
Encoding: 163 163 307
Width: 632
GlyphClass: 1
Flags: W
LayerCount: 2
Fore
SplineSet
149.5 174 m 128,-1,1
 192 218 192 218 192 281 c 0,2,3
 192 292 192 292 190 300 c 1,4,-1
 73 300 l 1,5,-1
 88 369 l 1,6,-1
 176 369 l 1,7,8
 152 436 152 436 152 490 c 0,9,10
 152 550 152 550 184 592.5 c 128,-1,11
 216 635 216 635 271 657 c 128,-1,12
 326 679 326 679 395 679 c 0,13,14
 481 679 481 679 547.5 641.5 c 128,-1,15
 614 604 614 604 637 534 c 1,16,-1
 510 491 l 1,17,18
 502 527 502 527 471 547 c 128,-1,19
 440 567 440 567 398 567 c 0,20,21
 351 567 351 567 323 542.5 c 128,-1,22
 295 518 295 518 295 476 c 0,23,24
 295 455 295 455 301.5 431 c 128,-1,25
 308 407 308 407 321 369 c 1,26,-1
 483 369 l 1,27,-1
 468 300 l 1,28,-1
 336 300 l 1,29,30
 338 291 338 291 338 282 c 0,31,32
 338 230 338 230 299.5 186 c 128,-1,33
 261 142 261 142 202 109 c 1,34,35
 238 126 238 126 283 126 c 0,36,37
 310 126 310 126 360 114 c 0,38,39
 402 103 402 103 428 103 c 256,40,41
 454 103 454 103 479 110.5 c 128,-1,42
 504 118 504 118 535 133 c 1,43,-1
 552 22 l 1,44,45
 512 4 512 4 474 -4 c 128,-1,46
 436 -12 436 -12 391 -12 c 0,47,48
 367 -12 367 -12 346.5 -7.5 c 128,-1,49
 326 -3 326 -3 292 7 c 0,50,51
 262 16 262 16 241.5 20.5 c 128,-1,52
 221 25 221 25 199 25 c 0,53,54
 131 25 131 25 58 -12 c 1,55,-1
 29 95 l 1,56,0
 107 130 107 130 149.5 174 c 128,-1,1
EndSplineSet
EndChar
StartChar: yen
Encoding: 165 165 308
Width: 632
GlyphClass: 1
Flags: W
LayerCount: 2
Fore
SplineSet
207 77 m 1,0,-1
 75 77 l 1,1,-1
 89 147 l 1,2,-1
 222 147 l 1,3,-1
 236 214 l 1,4,-1
 104 214 l 1,5,-1
 118 284 l 1,6,-1
 237 284 l 1,7,-1
 104 668 l 1,8,-1
 272 668 l 1,9,-1
 346 404 l 1,10,-1
 350 404 l 1,11,-1
 537 668 l 1,12,-1
 706 668 l 1,13,-1
 409 284 l 1,14,-1
 530 284 l 1,15,-1
 515 214 l 1,16,-1
 380 214 l 1,17,-1
 367 147 l 1,18,-1
 501 147 l 1,19,-1
 486 77 l 1,20,-1
 351 77 l 1,21,-1
 335 0 l 1,22,-1
 191 0 l 1,23,-1
 207 77 l 1,0,-1
EndSplineSet
EndChar
StartChar: section
Encoding: 167 167 291
Width: 632
GlyphClass: 1
Flags: W
LayerCount: 2
Fore
SplineSet
119.5 -138 m 128,-1,1
 66 -103 66 -103 50 -33 c 1,2,-1
 172 7 l 1,3,4
 176 -31 176 -31 200.5 -48 c 128,-1,5
 225 -65 225 -65 262 -65 c 0,6,7
 293 -65 293 -65 315 -51 c 128,-1,8
 337 -37 337 -37 337 -15 c 0,9,10
 337 1 337 1 322.5 16.5 c 128,-1,11
 308 32 308 32 270 57 c 2,12,-1
 176 121 l 2,13,14
 120 159 120 159 93 195.5 c 128,-1,15
 66 232 66 232 66 277 c 0,16,17
 66 373 66 373 185 435 c 1,18,19
 161 470 161 470 161 504 c 0,20,21
 161 557 161 557 191 597 c 128,-1,22
 221 637 221 637 271.5 658.5 c 128,-1,23
 322 680 322 680 384 680 c 0,24,25
 461 680 461 680 514.5 645 c 128,-1,26
 568 610 568 610 584 540 c 1,27,-1
 462 500 l 1,28,29
 458 538 458 538 433.5 555 c 128,-1,30
 409 572 409 572 372 572 c 0,31,32
 341 572 341 572 319 558 c 128,-1,33
 297 544 297 544 297 522 c 0,34,35
 297 506 297 506 311.5 490.5 c 128,-1,36
 326 475 326 475 364 450 c 2,37,-1
 458 386 l 2,38,39
 514 348 514 348 541 311.5 c 128,-1,40
 568 275 568 275 568 230 c 0,41,42
 568 134 568 134 449 72 c 1,43,44
 473 38 473 38 473 3 c 0,45,46
 473 -50 473 -50 443 -90 c 128,-1,47
 413 -130 413 -130 362.5 -151.5 c 128,-1,48
 312 -173 312 -173 250 -173 c 0,49,0
 173 -173 173 -173 119.5 -138 c 128,-1,1
430 208 m 0,51,52
 430 228 430 228 417 243.5 c 128,-1,53
 404 259 404 259 376 278 c 2,54,-1
 260 358 l 1,55,56
 204 335 204 335 204 299 c 0,57,58
 204 279 204 279 217 263.5 c 128,-1,59
 230 248 230 248 258 229 c 2,60,-1
 374 149 l 1,61,50
 430 172 430 172 430 208 c 0,51,52
EndSplineSet
EndChar
StartChar: copyright
Encoding: 169 169 292
Width: 632
GlyphClass: 1
Flags: W
LayerCount: 2
Fore
SplineSet
181.5 33.5 m 128,-1,1
 114 80 114 80 76 159 c 128,-1,2
 38 238 38 238 38 333 c 256,3,4
 38 428 38 428 76 507 c 128,-1,5
 114 586 114 586 181.5 632.5 c 128,-1,6
 249 679 249 679 334 679 c 256,7,8
 419 679 419 679 486.5 632.5 c 128,-1,9
 554 586 554 586 592 507 c 128,-1,10
 630 428 630 428 630 333 c 256,11,12
 630 238 630 238 592 159 c 128,-1,13
 554 80 554 80 486.5 33.5 c 128,-1,14
 419 -13 419 -13 334 -13 c 256,15,0
 249 -13 249 -13 181.5 33.5 c 128,-1,1
219.5 195 m 128,-1,17
 178 247 178 247 178 335 c 0,18,19
 178 422 178 422 221.5 474 c 128,-1,20
 265 526 265 526 335 526 c 0,21,22
 379 526 379 526 415.5 503 c 128,-1,23
 452 480 452 480 471 433 c 1,24,-1
 396 401 l 1,25,26
 380 446 380 446 339 446 c 0,27,28
 310 446 310 446 289.5 419 c 128,-1,29
 269 392 269 392 269 335 c 256,30,31
 269 278 269 278 289.5 250.5 c 128,-1,32
 310 223 310 223 339 223 c 0,33,34
 379 223 379 223 397 260 c 1,35,-1
 471 228 l 1,36,37
 449 186 449 186 412.5 164.5 c 128,-1,38
 376 143 376 143 334 143 c 0,39,16
 261 143 261 143 219.5 195 c 128,-1,17
453.5 81.5 m 128,-1,41
 507 119 507 119 537.5 185 c 128,-1,42
 568 251 568 251 568 333 c 256,43,44
 568 415 568 415 537.5 481 c 128,-1,45
 507 547 507 547 453.5 584.5 c 128,-1,46
 400 622 400 622 334 622 c 256,47,48
 268 622 268 622 214.5 584.5 c 128,-1,49
 161 547 161 547 130.5 481 c 128,-1,50
 100 415 100 415 100 333 c 256,51,52
 100 251 100 251 130.5 185 c 128,-1,53
 161 119 161 119 214.5 81.5 c 128,-1,54
 268 44 268 44 334 44 c 256,55,40
 400 44 400 44 453.5 81.5 c 128,-1,41
EndSplineSet
EndChar
StartChar: ordfeminine
Encoding: 170 170 223
Width: 632
GlyphClass: 1
Flags: W
LayerCount: 2
Fore
SplineSet
225 358.5 m 128,-1,1
 190 382 190 382 190 428 c 0,2,3
 190 499 190 499 257.5 527.5 c 128,-1,4
 325 556 325 556 440 562 c 1,5,6
 441 568 441 568 441 578 c 0,7,8
 441 601 441 601 427.5 611.5 c 128,-1,9
 414 622 414 622 387 622 c 0,10,11
 341 622 341 622 324 586 c 1,12,-1
 240 617 l 1,13,14
 259 653 259 653 297.5 673 c 128,-1,15
 336 693 336 693 390 693 c 0,16,17
 539 693 539 693 539 580 c 0,18,19
 539 558 539 558 535 538 c 2,20,-1
 518 459 l 2,21,22
 510 420 510 420 506.5 396.5 c 128,-1,23
 503 373 503 373 503 343 c 1,24,-1
 416 343 l 1,25,-1
 413 375 l 1,26,27
 397 357 397 357 370.5 346 c 128,-1,28
 344 335 344 335 313 335 c 0,29,0
 260 335 260 335 225 358.5 c 128,-1,1
395 424 m 128,-1,31
 418 442 418 442 424 472 c 2,32,-1
 429 497 l 1,33,34
 291 492 291 492 291 440 c 0,35,36
 291 422 291 422 305 414 c 128,-1,37
 319 406 319 406 340 406 c 0,38,30
 372 406 372 406 395 424 c 128,-1,31
EndSplineSet
EndChar
StartChar: guillemotleft
Encoding: 171 171 280
Width: 632
GlyphClass: 1
Flags: W
LayerCount: 2
Fore
SplineSet
280 243 m 1,0,-1
 468 460 l 1,1,-1
 632 460 l 1,2,-1
 436 235 l 1,3,-1
 543 40 l 1,4,-1
 392 40 l 1,5,-1
 280 243 l 1,0,-1
45 250 m 1,6,-1
 234 460 l 1,7,-1
 397 460 l 1,8,-1
 201 243 l 1,9,-1
 308 40 l 1,10,-1
 157 40 l 1,11,-1
 45 250 l 1,6,-1
EndSplineSet
EndChar
StartChar: plusminus
Encoding: 177 177 321
Width: 632
GlyphClass: 1
Flags: W
LayerCount: 2
Fore
SplineSet
265 282 m 1,0,-1
 69 282 l 1,1,-1
 90 382 l 1,2,-1
 286 382 l 1,3,-1
 310 496 l 1,4,-1
 428 496 l 1,5,-1
 404 382 l 1,6,-1
 599 382 l 1,7,-1
 578 282 l 1,8,-1
 383 282 l 1,9,-1
 359 171 l 1,10,-1
 241 171 l 1,11,-1
 265 282 l 1,0,-1
34 119 m 1,12,-1
 543 119 l 1,13,-1
 517 0 l 1,14,-1
 9 0 l 1,15,-1
 34 119 l 1,12,-1
EndSplineSet
EndChar
StartChar: uni00B2
Encoding: 178 178 245
Width: 632
GlyphClass: 1
Flags: W
LayerCount: 2
Fore
SplineSet
350.5 539.5 m 128,-1,1
 405 578 405 578 434.5 610.5 c 128,-1,2
 464 643 464 643 464 672 c 0,3,4
 464 692 464 692 450.5 703.5 c 128,-1,5
 437 715 437 715 413 715 c 0,6,7
 386 715 386 715 368.5 701 c 128,-1,8
 351 687 351 687 343 660 c 1,9,-1
 259 691 l 1,10,11
 300 786 300 786 416 786 c 0,12,13
 481 786 481 786 521 758.5 c 128,-1,14
 561 731 561 731 561 682 c 0,15,16
 561 630 561 630 525.5 586.5 c 128,-1,17
 490 543 490 543 446 514 c 128,-1,18
 402 485 402 485 330 445 c 1,19,-1
 517 445 l 1,20,-1
 500 364 l 1,21,-1
 182 364 l 1,22,-1
 198 440 l 1,23,0
 296 501 296 501 350.5 539.5 c 128,-1,1
EndSplineSet
EndChar
StartChar: uni00B3
Encoding: 179 179 246
Width: 632
GlyphClass: 1
Flags: W
LayerCount: 2
Fore
SplineSet
256 382.5 m 128,-1,1
 217 408 217 408 204 453 c 1,2,-1
 293 481 l 1,3,4
 298 456 298 456 316 442.5 c 128,-1,5
 334 429 334 429 364 429 c 256,6,7
 394 429 394 429 412.5 446.5 c 128,-1,8
 431 464 431 464 431 491 c 0,9,10
 431 539 431 539 336 539 c 1,11,-1
 352 617 l 1,12,13
 399 614 399 614 430 625.5 c 128,-1,14
 461 637 461 637 461 670 c 0,15,16
 461 689 461 689 444.5 701.5 c 128,-1,17
 428 714 428 714 401 714 c 0,18,19
 377 714 377 714 360 703.5 c 128,-1,20
 343 693 343 693 331 670 c 1,21,-1
 249 700 l 1,22,23
 269 741 269 741 311 763.5 c 128,-1,24
 353 786 353 786 405 786 c 0,25,26
 468 786 468 786 512.5 756.5 c 128,-1,27
 557 727 557 727 557 679 c 0,28,29
 557 644 557 644 536 615 c 128,-1,30
 515 586 515 586 480 572 c 1,31,32
 504 559 504 559 516.5 538 c 128,-1,33
 529 517 529 517 529 491 c 0,34,35
 529 431 529 431 480.5 394 c 128,-1,36
 432 357 432 357 363 357 c 0,37,0
 295 357 295 357 256 382.5 c 128,-1,1
EndSplineSet
EndChar
StartChar: paragraph
Encoding: 182 182 290
Width: 632
GlyphClass: 1
Flags: W
LayerCount: 2
Fore
SplineSet
157.5 362.5 m 128,-1,1
 123 406 123 406 123 462 c 0,2,3
 123 484 123 484 127 501 c 0,4,5
 143 578 143 578 206.5 623 c 128,-1,6
 270 668 270 668 360 668 c 2,7,-1
 653 668 l 1,8,-1
 640 605 l 1,9,-1
 594 605 l 1,10,-1
 431 -162 l 1,11,-1
 343 -162 l 1,12,-1
 506 605 l 1,13,-1
 410 605 l 1,14,-1
 247 -162 l 1,15,-1
 159 -162 l 1,16,-1
 257 300 l 1,17,0
 192 319 192 319 157.5 362.5 c 128,-1,1
EndSplineSet
EndChar
StartChar: uni00B9
Encoding: 185 185 244
Width: 632
GlyphClass: 1
Flags: W
LayerCount: 2
Fore
SplineSet
406 652 m 1,0,-1
 314 652 l 1,1,-1
 330 727 l 1,2,3
 383 725 383 725 409 736 c 128,-1,4
 435 747 435 747 452 779 c 1,5,-1
 527 779 l 1,6,-1
 439 364 l 1,7,-1
 345 364 l 1,8,-1
 406 652 l 1,0,-1
EndSplineSet
EndChar
StartChar: onequarter
Encoding: 188 188 242
Width: 632
GlyphClass: 3
Flags: W
LayerCount: 2
Fore
SplineSet
172 554 m 1,0,-1
 103 554 l 1,1,-1
 120 633 l 1,2,3
 165 632 165 632 185 639.5 c 128,-1,4
 205 647 205 647 217 668 c 1,5,-1
 285 668 l 1,6,-1
 220 359 l 1,7,-1
 131 359 l 1,8,-1
 172 554 l 1,0,-1
514 668 m 1,9,-1
 628 668 l 1,10,-1
 134 0 l 1,11,-1
 20 0 l 1,12,-1
 514 668 l 1,9,-1
434 59 m 1,13,-1
 278 59 l 1,14,-1
 294 131 l 1,15,-1
 476 309 l 1,16,-1
 569 309 l 1,17,-1
 532 133 l 1,18,-1
 578 133 l 1,19,-1
 562 59 l 1,20,-1
 516 59 l 1,21,-1
 504 0 l 1,22,-1
 421 0 l 1,23,-1
 434 59 l 1,13,-1
450 133 m 1,24,-1
 467 212 l 1,25,-1
 465 212 l 1,26,-1
 387 133 l 1,27,-1
 450 133 l 1,24,-1
EndSplineSet
Ligature2: "'frac' Diagonal Fractions in Latin lookup 7 subtable" one slash four
EndChar
StartChar: onehalf
Encoding: 189 189 241
Width: 632
GlyphClass: 3
Flags: W
LayerCount: 2
Fore
SplineSet
149 554 m 1,0,-1
 80 554 l 1,1,-1
 97 633 l 1,2,3
 142 632 142 632 162 639.5 c 128,-1,4
 182 647 182 647 194 668 c 1,5,-1
 262 668 l 1,6,-1
 197 359 l 1,7,-1
 108 359 l 1,8,-1
 149 554 l 1,0,-1
492 668 m 1,9,-1
 606 668 l 1,10,-1
 112 0 l 1,11,-1
 -2 0 l 1,12,-1
 492 668 l 1,9,-1
466.5 158.5 m 128,-1,14
 511 191 511 191 511 220 c 0,15,16
 511 232 511 232 503 239 c 128,-1,17
 495 246 495 246 479 246 c 256,18,19
 463 246 463 246 451 237.5 c 128,-1,20
 439 229 439 229 434 215 c 1,21,-1
 357 240 l 1,22,23
 379 277 379 277 411 295 c 128,-1,24
 443 313 443 313 490 313 c 0,25,26
 536 313 536 313 569 292 c 128,-1,27
 602 271 602 271 602 231 c 0,28,29
 602 185 602 185 564.5 149.5 c 128,-1,30
 527 114 527 114 461 76 c 1,31,-1
 570 76 l 1,32,-1
 553 0 l 1,33,-1
 303 0 l 1,34,-1
 318 70 l 1,35,13
 422 126 422 126 466.5 158.5 c 128,-1,14
EndSplineSet
Ligature2: "'frac' Diagonal Fractions in Latin lookup 7 subtable" one slash two
EndChar
StartChar: questiondown
Encoding: 191 191 257
Width: 632
GlyphClass: 1
Flags: W
LayerCount: 2
Fore
SplineSet
139.5 -163 m 128,-1,1
 83 -144 83 -144 47 -106 c 128,-1,2
 11 -68 11 -68 11 -14 c 0,3,4
 11 54 11 54 54 97.5 c 128,-1,5
 97 141 97 141 180 171 c 0,6,7
 237 192 237 192 258.5 210.5 c 128,-1,8
 280 229 280 229 286 255 c 2,9,-1
 289 274 l 1,10,-1
 431 274 l 1,11,-1
 426 252 l 2,12,13
 410 184 410 184 375 146 c 128,-1,14
 340 108 340 108 270 83 c 0,15,16
 214 63 214 63 186 44 c 128,-1,17
 158 25 158 25 158 -4 c 256,18,19
 158 -33 158 -33 189 -51 c 128,-1,20
 220 -69 220 -69 264 -69 c 256,21,22
 308 -69 308 -69 343.5 -47.5 c 128,-1,23
 379 -26 379 -26 395 11 c 1,24,-1
 522 -37 l 1,25,26
 490 -107 490 -107 420.5 -144.5 c 128,-1,27
 351 -182 351 -182 256 -182 c 0,28,0
 196 -182 196 -182 139.5 -163 c 128,-1,1
323.5 354 m 128,-1,30
 297 380 297 380 297 418 c 256,31,32
 297 456 297 456 323.5 483 c 128,-1,33
 350 510 350 510 388 510 c 256,34,35
 426 510 426 510 452.5 483 c 128,-1,36
 479 456 479 456 479 418 c 256,37,38
 479 380 479 380 452.5 354 c 128,-1,39
 426 328 426 328 388 328 c 256,40,29
 350 328 350 328 323.5 354 c 128,-1,30
EndSplineSet
EndChar
StartChar: Aring
Encoding: 197 197 10
Width: 632
GlyphClass: 2
Flags: W
AnchorPoint: "Anchor-2" 549 10 basechar 0
AnchorPoint: "Anchor-1" 438 858 basechar 0
AnchorPoint: "Anchor-0" 263 0 basechar 0
LayerCount: 2
Fore
SplineSet
283 731 m 0,1,2
 283 784 283 784 320 821 c 128,-1,3
 357 858 357 858 410 858 c 0,4,5
 445 858 445 858 474.5 841 c 128,-1,6
 504 824 504 824 521.5 795 c 128,-1,7
 539 766 539 766 539 731 c 0,8,9
 539 700 539 700 525 673.5 c 128,-1,10
 511 647 511 647 486 629 c 1,11,-1
 547 0 l 1,12,-1
 417 0 l 1,13,-1
 407 126 l 1,14,-1
 176 126 l 1,15,-1
 113 0 l 1,16,-1
 -21 0 l 1,17,-1
 317 646 l 1,18,0
 283 682 283 682 283 731 c 0,1,2
400 243 m 1,19,-1
 377 520 l 1,20,-1
 373 520 l 1,21,-1
 233 243 l 1,22,-1
 400 243 l 1,19,-1
445 697 m 128,-1,24
 459 711 459 711 459 731 c 256,25,26
 459 751 459 751 445 765 c 128,-1,27
 431 779 431 779 411 779 c 0,28,29
 392 779 392 779 377.5 765 c 128,-1,30
 363 751 363 751 363 731 c 256,31,32
 363 711 363 711 377 697 c 128,-1,33
 391 683 391 683 411 683 c 256,34,23
 431 683 431 683 445 697 c 128,-1,24
EndSplineSet
EndChar
StartChar: AE
Encoding: 198 198 12
Width: 632
GlyphClass: 2
Flags: W
AnchorPoint: "Anchor-1" 430 668 basechar 0
AnchorPoint: "Anchor-0" 288 0 basechar 0
LayerCount: 2
Fore
SplineSet
319 668 m 1,0,-1
 714 668 l 1,1,-1
 690 556 l 1,2,-1
 487 556 l 1,3,-1
 454 399 l 1,4,-1
 573 399 l 1,5,-1
 549 288 l 1,6,-1
 430 288 l 1,7,-1
 393 112 l 1,8,-1
 597 112 l 1,9,-1
 573 0 l 1,10,-1
 256 0 l 1,11,-1
 284 134 l 1,12,-1
 148 134 l 1,13,-1
 77 0 l 1,14,-1
 -48 0 l 1,15,-1
 319 668 l 1,0,-1
305 236 m 1,16,-1
 372 550 l 1,17,-1
 368 550 l 1,18,-1
 201 236 l 1,19,-1
 305 236 l 1,16,-1
EndSplineSet
EndChar
StartChar: Ccedilla
Encoding: 199 199 17
Width: 632
GlyphClass: 2
Flags: W
AnchorPoint: "Anchor-1" 428 668 basechar 0
LayerCount: 2
Fore
SplineSet
179 -163 m 1,1,-1
 203 -119 l 1,2,3
 216 -127 216 -127 234.5 -132.5 c 128,-1,4
 253 -138 253 -138 270 -138 c 0,5,6
 286 -138 286 -138 297.5 -130 c 128,-1,7
 309 -122 309 -122 309 -108 c 0,8,9
 309 -97 309 -97 300 -90 c 128,-1,10
 291 -83 291 -83 277 -83 c 0,11,12
 264 -83 264 -83 252 -85 c 0,13,14
 241 -87 241 -87 235 -82.5 c 128,-1,15
 229 -78 229 -78 229 -71 c 0,16,17
 229 -61 229 -61 236 -53 c 2,18,-1
 271 -9 l 1,19,20
 169 3 169 3 117 75 c 128,-1,21
 65 147 65 147 65 258 c 0,22,23
 65 355 65 355 103 452.5 c 128,-1,24
 141 550 141 550 217 615 c 128,-1,25
 293 680 293 680 402 680 c 0,26,27
 486 680 486 680 543.5 637.5 c 128,-1,28
 601 595 601 595 622 518 c 1,29,-1
 507 479 l 1,30,31
 496 519 496 519 468.5 541.5 c 128,-1,32
 441 564 441 564 400 564 c 0,33,34
 337 564 337 564 293 514.5 c 128,-1,35
 249 465 249 465 227.5 395 c 128,-1,36
 206 325 206 325 206 265 c 0,37,38
 206 194 206 194 237 149 c 128,-1,39
 268 104 268 104 331 104 c 0,40,41
 366 104 366 104 399.5 123.5 c 128,-1,42
 433 143 433 143 458 186 c 1,43,-1
 570 140 l 1,44,45
 526 70 526 70 462 30.5 c 128,-1,46
 398 -9 398 -9 324 -12 c 1,47,-1
 295 -47 l 1,48,49
 300 -46 300 -46 311 -46 c 0,50,51
 347 -46 347 -46 372 -62 c 128,-1,52
 397 -78 397 -78 397 -106 c 0,53,54
 397 -145 397 -145 364.5 -165.5 c 128,-1,55
 332 -186 332 -186 282 -186 c 0,56,0
 227 -186 227 -186 179 -163 c 1,1,-1
EndSplineSet
EndChar
StartChar: Eth
Encoding: 208 208 22
Width: 632
GlyphClass: 1
Flags: W
LayerCount: 2
Fore
SplineSet
73 286 m 1,0,-1
 26 286 l 1,1,-1
 51 405 l 1,2,-1
 99 405 l 1,3,-1
 154 668 l 1,4,-1
 291 668 l 2,5,6
 448 668 448 668 533 600.5 c 128,-1,7
 618 533 618 533 618 393 c 0,8,9
 618 309 618 309 585 218.5 c 128,-1,10
 552 128 552 128 474 64 c 128,-1,11
 396 0 396 0 269 0 c 2,12,-1
 12 0 l 1,13,-1
 73 286 l 1,0,-1
391.5 159 m 128,-1,15
 438 200 438 200 459 262.5 c 128,-1,16
 480 325 480 325 480 393 c 0,17,18
 480 478 480 478 430.5 514.5 c 128,-1,19
 381 551 381 551 292 551 c 2,20,-1
 263 551 l 1,21,-1
 232 405 l 1,22,-1
 351 405 l 1,23,-1
 325 286 l 1,24,-1
 206 286 l 1,25,-1
 171 118 l 1,26,-1
 274 118 l 2,27,14
 345 118 345 118 391.5 159 c 128,-1,15
EndSplineSet
EndChar
StartChar: multiply
Encoding: 215 215 313
Width: 632
GlyphClass: 1
Flags: W
LayerCount: 2
Fore
SplineSet
64 113 m 1,0,-1
 234 254 l 1,1,-1
 121 396 l 1,2,-1
 215 473 l 1,3,-1
 327 328 l 1,4,-1
 500 473 l 1,5,-1
 571 383 l 1,6,-1
 398 242 l 1,7,-1
 510 100 l 1,8,-1
 415 25 l 1,9,-1
 306 166 l 1,10,-1
 136 25 l 1,11,-1
 64 113 l 1,0,-1
EndSplineSet
EndChar
StartChar: germandbls
Encoding: 223 223 193
Width: 632
GlyphClass: 1
Flags: W
LayerCount: 2
Fore
SplineSet
250 -1 m 1,1,-1
 240 121 l 1,2,3
 282 103 282 103 330 103 c 0,4,5
 390 103 390 103 424.5 136 c 128,-1,6
 459 169 459 169 459 222 c 256,7,8
 459 275 459 275 417 305.5 c 128,-1,9
 375 336 375 336 312 336 c 2,10,-1
 309 336 l 1,11,-1
 332 446 l 1,12,13
 340 445 340 445 357 445 c 0,14,15
 401 445 401 445 428 461.5 c 128,-1,16
 455 478 455 478 455 516 c 0,17,18
 455 546 455 546 426.5 560.5 c 128,-1,19
 398 575 398 575 360 575 c 0,20,21
 312 575 312 575 286 549 c 128,-1,22
 260 523 260 523 247 466 c 2,23,-1
 148 0 l 1,24,-1
 7 0 l 1,25,-1
 111 486 l 2,26,27
 133 588 133 588 193 634 c 128,-1,28
 253 680 253 680 350 680 c 0,29,30
 445 680 445 680 509.5 641 c 128,-1,31
 574 602 574 602 574 529 c 0,32,33
 574 489 574 489 553 451 c 128,-1,34
 532 413 532 413 493 388 c 1,35,36
 548 367 548 367 575 323 c 128,-1,37
 602 279 602 279 602 225 c 0,38,39
 602 163 602 163 573.5 108.5 c 128,-1,40
 545 54 545 54 486.5 20.5 c 128,-1,41
 428 -13 428 -13 344 -13 c 0,42,0
 301 -13 301 -13 250 -1 c 1,1,-1
EndSplineSet
EndChar
StartChar: ae
Encoding: 230 230 122
Width: 632
GlyphClass: 2
Flags: W
AnchorPoint: "Anchor-1" 368 496 basechar 0
AnchorPoint: "Anchor-0" 263 0 basechar 0
LayerCount: 2
Fore
SplineSet
23.5 23 m 128,-1,1
 -10 58 -10 58 -10 112 c 0,2,3
 -10 201 -10 201 54.5 247.5 c 128,-1,4
 119 294 119 294 266 295 c 1,5,-1
 270 318 l 2,6,7
 275 340 275 340 275 358 c 0,8,9
 275 415 275 415 224 415 c 256,10,11
 173 415 173 415 147 352 c 1,12,-1
 62 397 l 1,13,14
 90 450 90 450 135.5 480 c 128,-1,15
 181 510 181 510 240 510 c 0,16,17
 283 510 283 510 312 492.5 c 128,-1,18
 341 475 341 475 354 441 c 1,19,20
 408 510 408 510 488 510 c 0,21,22
 562 510 562 510 595.5 458.5 c 128,-1,23
 629 407 629 407 629 325 c 0,24,25
 629 274 629 274 616 215 c 1,26,-1
 341 215 l 1,27,28
 340 206 340 206 340 189 c 0,29,30
 340 133 340 133 362 107 c 128,-1,31
 384 81 384 81 414 81 c 0,32,33
 462 81 462 81 494 131 c 1,34,-1
 580 95 l 1,35,36
 504 -12 504 -12 400 -12 c 256,37,38
 296 -12 296 -12 263 74 c 1,39,40
 237 34 237 34 200 11 c 128,-1,41
 163 -12 163 -12 116 -12 c 0,42,0
 57 -12 57 -12 23.5 23 c 128,-1,1
207.5 108 m 128,-1,44
 233 135 233 135 245 195 c 2,45,-1
 249 215 l 1,46,47
 161 214 161 214 127 192 c 128,-1,48
 93 170 93 170 93 132 c 0,49,50
 93 108 93 108 107.5 94.5 c 128,-1,51
 122 81 122 81 148 81 c 0,52,43
 182 81 182 81 207.5 108 c 128,-1,44
528 333 m 0,54,55
 528 369 528 369 513 391 c 128,-1,56
 498 413 498 413 466 413 c 0,57,58
 427 413 427 413 400 380 c 128,-1,59
 373 347 373 347 357 295 c 1,60,-1
 524 295 l 1,61,53
 528 321 528 321 528 333 c 0,54,55
EndSplineSet
EndChar
StartChar: ccedilla
Encoding: 231 231 127
Width: 632
GlyphClass: 2
Flags: W
AnchorPoint: "Anchor-1" 393 496 basechar 0
LayerCount: 2
Fore
SplineSet
161 -163 m 1,1,-1
 185 -119 l 1,2,3
 197 -126 197 -126 215.5 -132 c 128,-1,4
 234 -138 234 -138 252 -138 c 0,5,6
 268 -138 268 -138 279.5 -130 c 128,-1,7
 291 -122 291 -122 291 -108 c 0,8,9
 291 -97 291 -97 282 -90 c 128,-1,10
 273 -83 273 -83 259 -83 c 0,11,12
 246 -83 246 -83 234 -85 c 0,13,14
 223 -87 223 -87 216.5 -82.5 c 128,-1,15
 210 -78 210 -78 210 -71 c 0,16,17
 210 -63 210 -63 218 -53 c 2,18,-1
 256 -6 l 1,19,20
 171 9 171 9 124 65 c 128,-1,21
 77 121 77 121 77 208 c 0,22,23
 77 293 77 293 113.5 362 c 128,-1,24
 150 431 150 431 216.5 470.5 c 128,-1,25
 283 510 283 510 368 510 c 0,26,27
 444 510 444 510 505.5 477.5 c 128,-1,28
 567 445 567 445 591 379 c 1,29,-1
 474 338 l 1,30,31
 463 369 463 369 434.5 385 c 128,-1,32
 406 401 406 401 371 401 c 0,33,34
 321 401 321 401 287 373 c 128,-1,35
 253 345 253 345 236.5 302.5 c 128,-1,36
 220 260 220 260 220 216 c 0,37,38
 220 161 220 161 249 129 c 128,-1,39
 278 97 278 97 337 97 c 0,40,41
 371 97 371 97 398.5 109.5 c 128,-1,42
 426 122 426 122 440 147 c 1,43,-1
 555 102 l 1,44,45
 520 49 520 49 457.5 17 c 128,-1,46
 395 -15 395 -15 306 -12 c 1,47,-1
 277 -47 l 1,48,49
 282 -46 282 -46 293 -46 c 0,50,51
 329 -46 329 -46 354 -62 c 128,-1,52
 379 -78 379 -78 379 -106 c 0,53,54
 379 -145 379 -145 346 -165.5 c 128,-1,55
 313 -186 313 -186 264 -186 c 0,56,0
 209 -186 209 -186 161 -163 c 1,1,-1
EndSplineSet
EndChar
StartChar: divide
Encoding: 247 247 314
Width: 632
GlyphClass: 1
Flags: W
LayerCount: 2
Fore
SplineSet
73 307 m 1,0,-1
 585 307 l 1,1,-1
 559 189 l 1,2,-1
 47 189 l 1,3,-1
 73 307 l 1,0,-1
224 15.5 m 128,-1,5
 202 38 202 38 202 70 c 0,6,7
 202 101 202 101 224.5 123.5 c 128,-1,8
 247 146 247 146 278 146 c 256,9,10
 309 146 309 146 331.5 123.5 c 128,-1,11
 354 101 354 101 354 70 c 0,12,13
 354 38 354 38 332 15.5 c 128,-1,14
 310 -7 310 -7 278 -7 c 256,15,4
 246 -7 246 -7 224 15.5 c 128,-1,5
300.5 372.5 m 128,-1,17
 278 395 278 395 278 427 c 256,18,19
 278 459 278 459 300.5 481 c 128,-1,20
 323 503 323 503 354 503 c 0,21,22
 386 503 386 503 408 481 c 128,-1,23
 430 459 430 459 430 427 c 256,24,25
 430 395 430 395 408 372.5 c 128,-1,26
 386 350 386 350 354 350 c 0,27,16
 323 350 323 350 300.5 372.5 c 128,-1,17
EndSplineSet
EndChar
StartChar: oslash
Encoding: 248 248 179
Width: 632
GlyphClass: 2
Flags: W
AnchorPoint: "Anchor-3" 639 496 basechar 0
AnchorPoint: "Anchor-2" 499 10 basechar 0
AnchorPoint: "Anchor-1" 366 496 basechar 0
AnchorPoint: "Anchor-0" 264 0 basechar 0
LayerCount: 2
Fore
SplineSet
135 36 m 1,1,-1
 69 -24 l 1,2,-1
 22 27 l 1,3,-1
 87 85 l 1,4,5
 51 141 51 141 51 211 c 0,6,7
 51 296 51 296 88 364.5 c 128,-1,8
 125 433 125 433 191 471.5 c 128,-1,9
 257 510 257 510 343 510 c 0,10,11
 435 510 435 510 499 462 c 1,12,-1
 562 520 l 1,13,-1
 609 469 l 1,14,-1
 546 412 l 1,15,16
 582 359 582 359 582 286 c 0,17,18
 582 201 582 201 545.5 133 c 128,-1,19
 509 65 509 65 442.5 26.5 c 128,-1,20
 376 -12 376 -12 290 -12 c 0,21,0
 197 -12 197 -12 135 36 c 1,1,-1
376 126.5 m 128,-1,23
 408 156 408 156 423.5 200 c 128,-1,24
 439 244 439 244 439 287 c 0,25,26
 439 301 439 301 435 309 c 1,27,-1
 226 121 l 1,28,29
 253 97 253 97 296 97 c 0,30,22
 344 97 344 97 376 126.5 c 128,-1,23
337 401 m 0,32,33
 289 401 289 401 257 371.5 c 128,-1,34
 225 342 225 342 210 298 c 128,-1,35
 195 254 195 254 195 211 c 0,36,37
 195 199 195 199 198 188 c 1,38,-1
 407 377 l 1,39,31
 381 401 381 401 337 401 c 0,32,33
EndSplineSet
EndChar
StartChar: thorn
Encoding: 254 254 183
Width: 632
GlyphClass: 2
Flags: W
AnchorPoint: "Anchor-1" 368 496 basechar 0
AnchorPoint: "Anchor-0" 262 0 basechar 0
LayerCount: 2
Fore
SplineSet
166 708 m 1,0,-1
 307 708 l 1,1,-1
 248 427 l 1,2,3
 281 468 281 468 323.5 489 c 128,-1,4
 366 510 366 510 414 510 c 0,5,6
 497 510 497 510 545 452.5 c 128,-1,7
 593 395 593 395 593 303 c 0,8,9
 593 222 593 222 561 149.5 c 128,-1,10
 529 77 529 77 468.5 32.5 c 128,-1,11
 408 -12 408 -12 326 -12 c 0,12,13
 273 -12 273 -12 232 11.5 c 128,-1,14
 191 35 191 35 174 79 c 1,15,-1
 123 -162 l 1,16,-1
 -18 -162 l 1,17,-1
 166 708 l 1,0,-1
383 129 m 128,-1,19
 417 160 417 160 433 204 c 128,-1,20
 449 248 449 248 449 287 c 0,21,22
 449 338 449 338 423.5 369.5 c 128,-1,23
 398 401 398 401 351 401 c 0,24,25
 300 401 300 401 265.5 369 c 128,-1,26
 231 337 231 337 214.5 291.5 c 128,-1,27
 198 246 198 246 198 204 c 0,28,29
 198 154 198 154 223.5 126 c 128,-1,30
 249 98 249 98 298 98 c 0,31,18
 349 98 349 98 383 129 c 128,-1,19
EndSplineSet
EndChar
StartChar: aogonek
Encoding: 261 261 119
Width: 632
GlyphClass: 2
Flags: W
AnchorPoint: "Anchor-1" 368 496 basechar 0
LayerCount: 2
Fore
SplineSet
317 -153 m 128,-1,1
 271 -132 271 -132 271 -92 c 0,2,3
 271 -59 271 -59 300.5 -33 c 128,-1,4
 330 -7 330 -7 373 11 c 1,5,-1
 370 54 l 1,6,7
 338 20 338 20 295.5 4 c 128,-1,8
 253 -12 253 -12 208 -12 c 0,9,10
 136 -12 136 -12 88 23 c 128,-1,11
 40 58 40 58 40 119 c 0,12,13
 40 215 40 215 131 260.5 c 128,-1,14
 222 306 222 306 418 314 c 1,15,-1
 419 318 l 2,16,17
 422 332 422 332 422 343 c 0,18,19
 422 376 422 376 399.5 395.5 c 128,-1,20
 377 415 377 415 334 415 c 0,21,22
 297 415 297 415 268.5 398 c 128,-1,23
 240 381 240 381 230 353 c 1,24,-1
 111 396 l 1,25,26
 141 448 141 448 200.5 479 c 128,-1,27
 260 510 260 510 336 510 c 0,28,29
 437 510 437 510 494.5 469.5 c 128,-1,30
 552 429 552 429 552 349 c 0,31,32
 552 318 552 318 545 289 c 2,33,-1
 524 187 l 2,34,35
 512 132 512 132 506 81.5 c 128,-1,36
 500 31 500 31 502 0 c 1,37,38
 456 -8 456 -8 424 -28.5 c 128,-1,39
 392 -49 392 -49 392 -73 c 0,40,41
 392 -88 392 -88 405.5 -95 c 128,-1,42
 419 -102 419 -102 439 -102 c 256,43,44
 459 -102 459 -102 481 -98 c 1,45,-1
 465 -170 l 1,46,47
 449 -174 449 -174 424 -174 c 0,48,0
 363 -174 363 -174 317 -153 c 128,-1,1
342.5 110.5 m 128,-1,50
 379 139 379 139 391 190 c 2,51,-1
 399 229 l 1,52,53
 184 221 184 221 184 137 c 0,54,55
 184 111 184 111 205 96.5 c 128,-1,56
 226 82 226 82 259 82 c 0,57,49
 306 82 306 82 342.5 110.5 c 128,-1,50
EndSplineSet
EndChar
StartChar: iogonek
Encoding: 303 303 156
Width: 632
GlyphClass: 2
Flags: W
AnchorPoint: "Anchor-1" 436 751 basechar 0
LayerCount: 2
Fore
SplineSet
73 107 m 1,0,-1
 239 107 l 1,1,-1
 298 389 l 1,2,-1
 158 389 l 1,3,-1
 181 496 l 1,4,-1
 462 496 l 1,5,-1
 379 107 l 1,6,-1
 545 107 l 1,7,-1
 522 0 l 1,8,9
 476 -8 476 -8 444.5 -28.5 c 128,-1,10
 413 -49 413 -49 413 -73 c 0,11,12
 413 -88 413 -88 426 -95 c 128,-1,13
 439 -102 439 -102 459 -102 c 0,14,15
 481 -102 481 -102 501 -98 c 1,16,-1
 486 -170 l 1,17,18
 469 -174 469 -174 444 -174 c 0,19,20
 383 -174 383 -174 337 -153 c 128,-1,21
 291 -132 291 -132 291 -92 c 0,22,23
 291 -41 291 -41 370 0 c 1,24,-1
 49 0 l 1,25,-1
 73 107 l 1,0,-1
357 606 m 128,-1,27
 332 631 332 631 332 666 c 256,28,29
 332 701 332 701 357 726 c 128,-1,30
 382 751 382 751 417 751 c 256,31,32
 452 751 452 751 477 726 c 128,-1,33
 502 701 502 701 502 666 c 256,34,35
 502 631 502 631 477 606 c 128,-1,36
 452 581 452 581 417 581 c 256,37,26
 382 581 382 581 357 606 c 128,-1,27
EndSplineSet
EndChar
StartChar: dotlessi
Encoding: 305 305 150
Width: 632
GlyphClass: 2
Flags: W
AnchorPoint: "Anchor-2" 524 10 basechar 0
AnchorPoint: "Anchor-1" 381 496 basechar 0
AnchorPoint: "Anchor-0" 246 0 basechar 0
LayerCount: 2
Fore
SplineSet
73 107 m 1,0,-1
 239 107 l 1,1,-1
 298 389 l 1,2,-1
 158 389 l 1,3,-1
 181 496 l 1,4,-1
 462 496 l 1,5,-1
 379 107 l 1,6,-1
 545 107 l 1,7,-1
 522 0 l 1,8,-1
 49 0 l 1,9,-1
 73 107 l 1,0,-1
EndSplineSet
EndChar
StartChar: ij
Encoding: 307 307 157
Width: 632
GlyphClass: 1
Flags: W
LayerCount: 2
Fore
SplineSet
236 -50 m 1,0,-1
 294 -50 l 2,1,2
 319 -50 319 -50 332 -46.5 c 128,-1,3
 345 -43 345 -43 352 -32.5 c 128,-1,4
 359 -22 359 -22 364 2 c 2,5,-1
 446 389 l 1,6,-1
 378 389 l 1,7,-1
 401 496 l 1,8,-1
 610 496 l 1,9,-1
 499 -26 l 2,10,11
 486 -84 486 -84 461 -113 c 128,-1,12
 436 -142 436 -142 397 -151.5 c 128,-1,13
 358 -161 358 -161 290 -161 c 2,14,-1
 211 -161 l 1,15,-1
 236 -50 l 1,0,-1
138 389 m 1,16,-1
 70 389 l 1,17,-1
 93 496 l 1,18,-1
 301 496 l 1,19,-1
 196 0 l 1,20,-1
 55 0 l 1,21,-1
 138 389 l 1,16,-1
197 606 m 128,-1,23
 172 631 172 631 172 666 c 256,24,25
 172 701 172 701 197 726 c 128,-1,26
 222 751 222 751 257 751 c 256,27,28
 292 751 292 751 317 726 c 128,-1,29
 342 701 342 701 342 666 c 256,30,31
 342 631 342 631 317 606 c 128,-1,32
 292 581 292 581 257 581 c 256,33,22
 222 581 222 581 197 606 c 128,-1,23
505.5 606 m 128,-1,35
 481 631 481 631 481 666 c 256,36,37
 481 701 481 701 505.5 726 c 128,-1,38
 530 751 530 751 565 751 c 256,39,40
 600 751 600 751 625 726 c 128,-1,41
 650 701 650 701 650 666 c 256,42,43
 650 631 650 631 625 606 c 128,-1,44
 600 581 600 581 565 581 c 256,45,34
 530 581 530 581 505.5 606 c 128,-1,35
EndSplineSet
EndChar
StartChar: lslash
Encoding: 322 322 166
Width: 632
GlyphClass: 1
Flags: W
LayerCount: 2
Fore
SplineSet
205 21.5 m 128,-1,1
 168 43 168 43 168 95 c 0,2,3
 168 113 168 113 175 150 c 2,4,-1
 198 255 l 1,5,-1
 133 223 l 1,6,-1
 156 330 l 1,7,-1
 221 363 l 1,8,-1
 271 601 l 1,9,-1
 156 601 l 1,10,-1
 178 708 l 1,11,-1
 434 708 l 1,12,-1
 377 439 l 1,13,-1
 510 505 l 1,14,-1
 487 398 l 1,15,-1
 354 331 l 1,16,-1
 322 179 l 2,17,18
 318 163 318 163 318 148 c 0,19,20
 318 128 318 128 331.5 119.5 c 128,-1,21
 345 111 345 111 381 111 c 2,22,-1
 543 111 l 1,23,-1
 520 0 l 1,24,-1
 332 0 l 2,25,0
 242 0 242 0 205 21.5 c 128,-1,1
EndSplineSet
EndChar
StartChar: scedilla
Encoding: 351 351 191
Width: 632
GlyphClass: 2
Flags: W
AnchorPoint: "Anchor-1" 361 496 basechar 0
LayerCount: 2
Fore
SplineSet
160 -163 m 1,1,-1
 184 -119 l 1,2,3
 197 -127 197 -127 215.5 -132.5 c 128,-1,4
 234 -138 234 -138 251 -138 c 0,5,6
 267 -138 267 -138 278.5 -130 c 128,-1,7
 290 -122 290 -122 290 -108 c 0,8,9
 290 -97 290 -97 281 -90 c 128,-1,10
 272 -83 272 -83 258 -83 c 0,11,12
 245 -83 245 -83 233 -85 c 0,13,14
 222 -87 222 -87 216 -82.5 c 128,-1,15
 210 -78 210 -78 210 -70 c 0,16,17
 210 -61 210 -61 217 -53 c 2,18,-1
 254 -9 l 1,19,20
 182 0 182 0 128.5 31 c 128,-1,21
 75 62 75 62 55 117 c 1,22,-1
 175 159 l 1,23,24
 186 123 186 123 225 106.5 c 128,-1,25
 264 90 264 90 308 90 c 0,26,27
 344 90 344 90 370 102.5 c 128,-1,28
 396 115 396 115 396 142 c 0,29,30
 396 158 396 158 379.5 170 c 128,-1,31
 363 182 363 182 325 193 c 2,32,-1
 243 218 l 2,33,34
 113 258 113 258 113 350 c 0,35,36
 113 401 113 401 144.5 437 c 128,-1,37
 176 473 176 473 227 491.5 c 128,-1,38
 278 510 278 510 336 510 c 0,39,40
 412 510 412 510 473 482 c 128,-1,41
 534 454 534 454 557 392 c 1,42,-1
 438 351 l 1,43,44
 428 382 428 382 396 395.5 c 128,-1,45
 364 409 364 409 326 409 c 0,46,47
 294 409 294 409 271 398 c 128,-1,48
 248 387 248 387 248 364 c 0,49,50
 248 336 248 336 303 318 c 2,51,-1
 391 292 l 2,52,53
 462 269 462 269 497.5 238 c 128,-1,54
 533 207 533 207 533 159 c 0,55,56
 533 107 533 107 503 68 c 128,-1,57
 473 29 473 29 421 8.5 c 128,-1,58
 369 -12 369 -12 305 -12 c 1,59,-1
 276 -47 l 1,60,61
 281 -46 281 -46 292 -46 c 0,62,63
 328 -46 328 -46 353 -62 c 128,-1,64
 378 -78 378 -78 378 -106 c 0,65,66
 378 -145 378 -145 345.5 -165.5 c 128,-1,67
 313 -186 313 -186 263 -186 c 0,68,0
 208 -186 208 -186 160 -163 c 1,1,-1
EndSplineSet
Substitution2: "'locl' Localized Forms in Latin lookup 4 subtable" uni0219
AlternateSubs2: "'aalt' Access All Alternates in Latin lookup 0 subtable" uni0219
EndChar
StartChar: Uogonek
Encoding: 370 370 94
Width: 632
GlyphClass: 2
Flags: W
AnchorPoint: "Anchor-3" 719 668 basechar 0
AnchorPoint: "Anchor-1" 403 668 basechar 0
LayerCount: 2
Fore
SplineSet
295.5 -152.5 m 128,-1,1
 251 -132 251 -132 251 -88 c 0,2,3
 251 -50 251 -50 292 -11 c 1,4,5
 56 -6 56 -6 56 193 c 0,6,7
 56 237 56 237 67 289 c 2,8,-1
 147 668 l 1,9,-1
 293 668 l 1,10,-1
 205 255 l 2,11,12
 198 220 198 220 198 200 c 0,13,14
 198 106 198 106 305 106 c 0,15,16
 357 106 357 106 384 137 c 128,-1,17
 411 168 411 168 425 231 c 2,18,-1
 517 668 l 1,19,-1
 663 668 l 1,20,-1
 571 236 l 2,21,22
 555 160 555 160 522.5 102 c 128,-1,23
 490 44 490 44 437 16 c 0,24,25
 408 1 408 1 389.5 -21.5 c 128,-1,26
 371 -44 371 -44 371 -66 c 0,27,28
 371 -84 371 -84 384 -93 c 128,-1,29
 397 -102 397 -102 420 -102 c 0,30,31
 431 -102 431 -102 459 -98 c 1,32,-1
 443 -170 l 1,33,34
 422 -173 422 -173 408 -173 c 0,35,0
 340 -173 340 -173 295.5 -152.5 c 128,-1,1
EndSplineSet
EndChar
StartChar: uogonek
Encoding: 371 371 205
Width: 632
GlyphClass: 2
Flags: W
AnchorPoint: "Anchor-3" 629 496 basechar 0
AnchorPoint: "Anchor-1" 365 496 basechar 0
LayerCount: 2
Fore
SplineSet
98 24 m 128,-1,1
 63 60 63 60 63 126 c 0,2,3
 63 154 63 154 71 194 c 2,4,-1
 136 496 l 1,5,-1
 277 496 l 1,6,-1
 217 215 l 2,7,8
 211 190 211 190 211 168 c 0,9,10
 211 97 211 97 278 97 c 0,11,12
 322 97 322 97 356 136.5 c 128,-1,13
 390 176 390 176 404 244 c 2,14,-1
 458 496 l 1,15,-1
 598 496 l 1,16,-1
 493 0 l 1,17,18
 447 -8 447 -8 415.5 -28.5 c 128,-1,19
 384 -49 384 -49 384 -73 c 0,20,21
 384 -88 384 -88 397 -95 c 128,-1,22
 410 -102 410 -102 430 -102 c 0,23,24
 452 -102 452 -102 472 -98 c 1,25,-1
 457 -170 l 1,26,27
 440 -174 440 -174 415 -174 c 0,28,29
 354 -174 354 -174 308 -153 c 128,-1,30
 262 -132 262 -132 262 -92 c 0,31,32
 262 -58 262 -58 293.5 -31.5 c 128,-1,33
 325 -5 325 -5 371 14 c 1,34,-1
 368 72 l 1,35,36
 336 33 336 33 296.5 10.5 c 128,-1,37
 257 -12 257 -12 204 -12 c 0,38,0
 133 -12 133 -12 98 24 c 128,-1,1
EndSplineSet
EndChar
StartChar: florin
Encoding: 402 402 286
Width: 632
GlyphClass: 1
Flags: W
LayerCount: 2
Fore
SplineSet
47.5 -166 m 128,-1,1
 16 -160 16 -160 -19 -148 c 1,2,-1
 5 -29 l 1,3,4
 24 -36 24 -36 50.5 -40.5 c 128,-1,5
 77 -45 77 -45 93 -45 c 0,6,7
 140 -45 140 -45 162.5 -14 c 128,-1,8
 185 17 185 17 201 95 c 2,9,-1
 263 390 l 1,10,-1
 96 390 l 1,11,-1
 119 496 l 1,12,-1
 286 496 l 1,13,-1
 306 593 l 2,14,15
 322 667 322 667 358.5 695.5 c 128,-1,16
 395 724 395 724 471 724 c 2,17,-1
 664 724 l 1,18,-1
 641 613 l 1,19,-1
 489 613 l 2,20,21
 467 613 467 613 457 605 c 128,-1,22
 447 597 447 597 442 575 c 2,23,-1
 425 496 l 1,24,-1
 616 496 l 1,25,-1
 593 390 l 1,26,-1
 402 390 l 1,27,-1
 323 20 l 2,28,29
 301 -83 301 -83 250 -127.5 c 128,-1,30
 199 -172 199 -172 115 -172 c 0,31,0
 79 -172 79 -172 47.5 -166 c 128,-1,1
EndSplineSet
EndChar
StartChar: gravecomb
Encoding: 768 768 340
Width: 0
GlyphClass: 4
Flags: W
AnchorPoint: "Anchor-5" 462 723 basemark 0
AnchorPoint: "Anchor-5" 414 496 mark 0
AnchorPoint: "Anchor-1" 414 496 mark 0
LayerCount: 2
Fore
SplineSet
305 663 m 256,1,2
 305 686 305 686 323 704.5 c 128,-1,3
 341 723 341 723 363 723 c 0,4,5
 376 723 376 723 385 715 c 128,-1,6
 394 707 394 707 405 689 c 2,7,-1
 475 574 l 1,8,-1
 379 574 l 1,9,-1
 331 617 l 2,10,0
 305 640 305 640 305 663 c 256,1,2
EndSplineSet
Substitution2: "Single Substitution lookup 12 subtable" gravecomb.case
Substitution2: "'case' Case-Sensitive Forms in Latin lookup 9 subtable" gravecomb.case
AlternateSubs2: "'aalt' Access All Alternates in Latin lookup 0 subtable" gravecomb.case
EndChar
StartChar: tildecomb
Encoding: 771 771 355
Width: 0
GlyphClass: 4
Flags: W
AnchorPoint: "Anchor-5" 409 683 basemark 0
AnchorPoint: "Anchor-5" 369 496 mark 0
AnchorPoint: "Anchor-1" 369 496 mark 0
LayerCount: 2
Fore
SplineSet
414 576 m 128,-1,1
 397 582 397 582 380 593 c 0,2,3
 371 598 371 598 360.5 602.5 c 128,-1,4
 350 607 350 607 340 607 c 0,5,6
 323 607 323 607 309 599 c 128,-1,7
 295 591 295 591 289 574 c 1,8,-1
 207 574 l 1,9,10
 227 627 227 627 263.5 655 c 128,-1,11
 300 683 300 683 350 683 c 0,12,13
 373 683 373 683 387 677 c 128,-1,14
 401 671 401 671 419 660 c 0,15,16
 431 652 431 652 441 647.5 c 128,-1,17
 451 643 451 643 463 643 c 0,18,19
 476 643 476 643 487 648.5 c 128,-1,20
 498 654 498 654 511 665 c 0,21,22
 532 684 532 684 549 684 c 0,23,24
 563 684 563 684 571.5 676 c 128,-1,25
 580 668 580 668 580 656 c 0,26,27
 580 635 580 635 560.5 615 c 128,-1,28
 541 595 541 595 512 582.5 c 128,-1,29
 483 570 483 570 457 570 c 256,30,0
 431 570 431 570 414 576 c 128,-1,1
EndSplineSet
Substitution2: "Single Substitution lookup 12 subtable" tildecomb.case
Substitution2: "'case' Case-Sensitive Forms in Latin lookup 9 subtable" tildecomb.case
AlternateSubs2: "'aalt' Access All Alternates in Latin lookup 0 subtable" tildecomb.case
EndChar
StartChar: uni0306
Encoding: 774 774 351
Width: 0
GlyphClass: 4
Flags: W
AnchorPoint: "Anchor-5" 409 686 basemark 0
AnchorPoint: "Anchor-5" 369 496 mark 0
AnchorPoint: "Anchor-1" 369 496 mark 0
LayerCount: 2
Fore
SplineSet
303 596 m 128,-1,1
 270 629 270 629 267 685 c 1,2,-1
 344 685 l 1,3,4
 348 663 348 663 364.5 651.5 c 128,-1,5
 381 640 381 640 403 640 c 0,6,7
 431 640 431 640 450.5 654 c 128,-1,8
 470 668 470 668 473 685 c 1,9,-1
 552 685 l 1,10,11
 536 630 536 630 494 596.5 c 128,-1,12
 452 563 452 563 393 563 c 0,13,0
 336 563 336 563 303 596 c 128,-1,1
EndSplineSet
Substitution2: "Single Substitution lookup 12 subtable" uni0306.case
Substitution2: "'case' Case-Sensitive Forms in Latin lookup 9 subtable" uni0306.case
AlternateSubs2: "'aalt' Access All Alternates in Latin lookup 0 subtable" uni0306.case
EndChar
StartChar: uni0308
Encoding: 776 776 335
Width: 0
GlyphClass: 4
Flags: W
AnchorPoint: "Anchor-5" 417 718 basemark 0
AnchorPoint: "Anchor-5" 370 496 mark 0
AnchorPoint: "Anchor-1" 370 496 mark 0
LayerCount: 2
Fore
SplineSet
451 597 m 128,-1,1
 430 618 430 618 430 647 c 256,2,3
 430 676 430 676 451 697 c 128,-1,4
 472 718 472 718 501 718 c 256,5,6
 530 718 530 718 551 697 c 128,-1,7
 572 676 572 676 572 647 c 256,8,9
 572 618 572 618 551 597 c 128,-1,10
 530 576 530 576 501 576 c 256,11,0
 472 576 472 576 451 597 c 128,-1,1
250.5 597 m 128,-1,13
 229 618 229 618 229 647 c 256,14,15
 229 676 229 676 250.5 697 c 128,-1,16
 272 718 272 718 301 718 c 256,17,18
 330 718 330 718 351 697 c 128,-1,19
 372 676 372 676 372 647 c 256,20,21
 372 618 372 618 351 597 c 128,-1,22
 330 576 330 576 301 576 c 256,23,12
 272 576 272 576 250.5 597 c 128,-1,13
EndSplineSet
Substitution2: "Single Substitution lookup 12 subtable" uni0308.case
Substitution2: "'case' Case-Sensitive Forms in Latin lookup 9 subtable" uni0308.case
AlternateSubs2: "'aalt' Access All Alternates in Latin lookup 0 subtable" uni0308.case
EndChar
StartChar: uni030B
Encoding: 779 779 344
Width: 0
GlyphClass: 4
Flags: W
AnchorPoint: "Anchor-5" 471 723 basemark 0
AnchorPoint: "Anchor-5" 329 496 mark 0
AnchorPoint: "Anchor-1" 329 496 mark 0
LayerCount: 2
Fore
SplineSet
337.5 714.5 m 128,-1,1
 353 723 353 723 370 723 c 0,2,3
 393 723 393 723 405.5 712 c 128,-1,4
 418 701 418 701 418 684 c 0,5,6
 418 664 418 664 404.5 649 c 128,-1,7
 391 634 391 634 365 617 c 2,8,-1
 299 574 l 1,9,-1
 188 574 l 1,10,-1
 305 689 l 2,11,0
 322 706 322 706 337.5 714.5 c 128,-1,1
536.5 715 m 128,-1,13
 551 723 551 723 569 723 c 0,14,15
 592 723 592 723 604.5 712 c 128,-1,16
 617 701 617 701 617 684 c 0,17,18
 617 664 617 664 603 649 c 128,-1,19
 589 634 589 634 563 617 c 2,20,-1
 497 574 l 1,21,-1
 386 574 l 1,22,-1
 504 689 l 2,23,12
 522 707 522 707 536.5 715 c 128,-1,13
EndSplineSet
Substitution2: "Single Substitution lookup 12 subtable" uni030B.case
Substitution2: "'case' Case-Sensitive Forms in Latin lookup 9 subtable" uni030B.case
AlternateSubs2: "'aalt' Access All Alternates in Latin lookup 0 subtable" uni030B.case
EndChar
StartChar: uni0328
Encoding: 808 808 361
Width: 0
GlyphClass: 4
Flags: W
AnchorPoint: "Anchor-2" 373 10 mark 0
LayerCount: 2
Fore
SplineSet
186 -153 m 128,-1,1
 140 -132 140 -132 140 -92 c 0,2,3
 140 -56 140 -56 174.5 -28.5 c 128,-1,4
 209 -1 209 -1 257 17 c 1,5,-1
 371 0 l 1,6,7
 325 -8 325 -8 293.5 -28.5 c 128,-1,8
 262 -49 262 -49 262 -73 c 0,9,10
 262 -88 262 -88 275 -95 c 128,-1,11
 288 -102 288 -102 308 -102 c 0,12,13
 330 -102 330 -102 350 -98 c 1,14,-1
 335 -170 l 1,15,16
 318 -174 318 -174 294 -174 c 0,17,0
 232 -174 232 -174 186 -153 c 128,-1,1
EndSplineSet
Substitution2: "Single Substitution lookup 12 subtable" uni0328.case
Substitution2: "'case' Case-Sensitive Forms in Latin lookup 9 subtable" uni0328.case
AlternateSubs2: "'aalt' Access All Alternates in Latin lookup 0 subtable" uni0328.case
EndChar
StartChar: uni03A9
Encoding: 937 937 226
Width: 632
GlyphClass: 1
Flags: W
LayerCount: 2
Fore
SplineSet
1 105 m 1,0,-1
 136 105 l 1,1,-1
 145 147 l 1,2,3
 101 179 101 179 77 230.5 c 128,-1,4
 53 282 53 282 53 344 c 0,5,6
 53 434 53 434 96.5 511.5 c 128,-1,7
 140 589 140 589 214.5 634.5 c 128,-1,8
 289 680 289 680 380 680 c 0,9,10
 456 680 456 680 514.5 645.5 c 128,-1,11
 573 611 573 611 605 552.5 c 128,-1,12
 637 494 637 494 637 423 c 0,13,14
 637 332 637 332 587 256.5 c 128,-1,15
 537 181 537 181 441 139 c 1,16,-1
 434 105 l 1,17,-1
 569 105 l 1,18,-1
 547 0 l 1,19,-1
 293 0 l 1,20,-1
 338 213 l 1,21,22
 390 218 390 218 432 245.5 c 128,-1,23
 474 273 474 273 498.5 316 c 128,-1,24
 523 359 523 359 523 410 c 0,25,26
 523 485 523 485 478.5 529 c 128,-1,27
 434 573 434 573 366 573 c 0,28,29
 312 573 312 573 266 544 c 128,-1,30
 220 515 220 515 193.5 468 c 128,-1,31
 167 421 167 421 167 368 c 0,32,33
 167 312 167 312 197 269.5 c 128,-1,34
 227 227 227 227 278 213 c 1,35,-1
 233 0 l 1,36,-1
 -21 0 l 1,37,-1
 1 105 l 1,0,-1
EndSplineSet
EndChar
StartChar: uni1E9E
Encoding: 7838 7838 82
Width: 632
GlyphClass: 1
Flags: W
LayerCount: 2
Fore
SplineSet
272 23 m 128,-1,1
 231 58 231 58 220 111 c 1,2,-1
 328 149 l 1,3,4
 332 126 332 126 348.5 114 c 128,-1,5
 365 102 365 102 390 102 c 0,6,7
 424 102 424 102 445.5 133.5 c 128,-1,8
 467 165 467 165 467 207 c 0,9,10
 467 238 467 238 450.5 258.5 c 128,-1,11
 434 279 434 279 401 279 c 0,12,13
 381 279 381 279 366 274 c 1,14,-1
 335 359 l 1,15,-1
 523 559 l 1,16,17
 469 568 469 568 420 568 c 0,18,19
 340 568 340 568 294 535.5 c 128,-1,20
 248 503 248 503 233 432 c 2,21,-1
 142 0 l 1,22,-1
 -3 0 l 1,23,-1
 98 477 l 2,24,25
 113 548 113 548 148.5 592.5 c 128,-1,26
 184 637 184 637 248.5 658.5 c 128,-1,27
 313 680 313 680 414 680 c 0,28,29
 547 680 547 680 670 654 c 1,30,-1
 645 533 l 1,31,-1
 482 361 l 1,32,33
 536 346 536 346 567.5 306.5 c 128,-1,34
 599 267 599 267 599 210 c 0,35,36
 599 149 599 149 570.5 98 c 128,-1,37
 542 47 542 47 492.5 17.5 c 128,-1,38
 443 -12 443 -12 381 -12 c 0,39,0
 313 -12 313 -12 272 23 c 128,-1,1
EndSplineSet
EndChar
StartChar: quoteleft
Encoding: 8216 8216 278
Width: 632
GlyphClass: 1
Flags: W
LayerCount: 2
Fore
SplineSet
281 351 m 128,-1,1
 252 379 252 379 252 418 c 0,2,3
 252 452 252 452 275 486 c 2,4,-1
 392 671 l 1,5,-1
 490 671 l 1,6,-1
 392 516 l 1,7,8
 421 504 421 504 437 478.5 c 128,-1,9
 453 453 453 453 453 425 c 0,10,11
 453 382 453 382 423 352.5 c 128,-1,12
 393 323 393 323 351 323 c 0,13,0
 310 323 310 323 281 351 c 128,-1,1
EndSplineSet
EndChar
StartChar: quotedblleft
Encoding: 8220 8220 276
Width: 632
GlyphClass: 1
Flags: W
LayerCount: 2
Fore
SplineSet
410 363.5 m 128,-1,1
 382 391 382 391 382 430 c 0,2,3
 382 461 382 461 403 493 c 2,4,-1
 517 668 l 1,5,-1
 614 668 l 1,6,-1
 516 522 l 1,7,8
 543 510 543 510 560 486 c 128,-1,9
 577 462 577 462 577 433 c 0,10,11
 577 393 577 393 548.5 364.5 c 128,-1,12
 520 336 520 336 479 336 c 256,13,0
 438 336 438 336 410 363.5 c 128,-1,1
160 363.5 m 128,-1,15
 132 391 132 391 132 430 c 0,16,17
 132 461 132 461 153 493 c 2,18,-1
 266 668 l 1,19,-1
 363 668 l 1,20,-1
 266 522 l 1,21,22
 292 510 292 510 309 486 c 128,-1,23
 326 462 326 462 326 433 c 0,24,25
 326 393 326 393 297.5 364.5 c 128,-1,26
 269 336 269 336 229 336 c 0,27,14
 188 336 188 336 160 363.5 c 128,-1,15
EndSplineSet
EndChar
StartChar: quotedblright
Encoding: 8221 8221 277
Width: 632
GlyphClass: 1
Flags: W
LayerCount: 2
Fore
SplineSet
433 529.5 m 128,-1,1
 416 554 416 554 416 583 c 0,2,3
 416 623 416 623 444.5 651.5 c 128,-1,4
 473 680 473 680 513 680 c 0,5,6
 554 680 554 680 582 652 c 128,-1,7
 610 624 610 624 610 585 c 0,8,9
 610 572 610 572 605 555 c 128,-1,10
 600 538 600 538 589 523 c 2,11,-1
 476 348 l 1,12,-1
 379 348 l 1,13,-1
 476 494 l 1,14,0
 450 505 450 505 433 529.5 c 128,-1,1
182 529.5 m 128,-1,16
 165 554 165 554 165 583 c 0,17,18
 165 623 165 623 194 651.5 c 128,-1,19
 223 680 223 680 263 680 c 0,20,21
 304 680 304 680 332 652 c 128,-1,22
 360 624 360 624 360 585 c 0,23,24
 360 572 360 572 355 555 c 128,-1,25
 350 538 350 538 339 523 c 2,26,-1
 225 348 l 1,27,-1
 128 348 l 1,28,-1
 226 494 l 1,29,15
 199 505 199 505 182 529.5 c 128,-1,16
EndSplineSet
EndChar
StartChar: quotedblbase
Encoding: 8222 8222 275
Width: 632
GlyphClass: 1
Flags: W
LayerCount: 2
Fore
SplineSet
75 23.5 m 128,-1,1
 58 48 58 48 58 77 c 0,2,3
 58 117 58 117 86.5 145.5 c 128,-1,4
 115 174 115 174 155 174 c 0,5,6
 196 174 196 174 224 146 c 128,-1,7
 252 118 252 118 252 79 c 0,8,9
 252 66 252 66 247 49 c 128,-1,10
 242 32 242 32 231 17 c 2,11,-1
 117 -158 l 1,12,-1
 21 -158 l 1,13,-1
 118 -12 l 1,14,0
 92 -1 92 -1 75 23.5 c 128,-1,1
325 23.5 m 128,-1,16
 308 48 308 48 308 77 c 0,17,18
 308 117 308 117 336.5 145.5 c 128,-1,19
 365 174 365 174 405 174 c 0,20,21
 446 174 446 174 474 146 c 128,-1,22
 502 118 502 118 502 79 c 0,23,24
 502 46 502 46 482 17 c 2,25,-1
 368 -158 l 1,26,-1
 271 -158 l 1,27,-1
 368 -12 l 1,28,15
 342 -1 342 -1 325 23.5 c 128,-1,16
EndSplineSet
EndChar
StartChar: daggerdbl
Encoding: 8225 8225 300
Width: 632
GlyphClass: 1
Flags: W
LayerCount: 2
Fore
SplineSet
235 173 m 1,0,-1
 49 173 l 1,1,-1
 73 281 l 1,2,-1
 258 281 l 1,3,-1
 280 387 l 1,4,-1
 94 387 l 1,5,-1
 118 496 l 1,6,-1
 303 496 l 1,7,-1
 340 668 l 1,8,-1
 472 668 l 1,9,-1
 435 496 l 1,10,-1
 620 496 l 1,11,-1
 597 387 l 1,12,-1
 412 387 l 1,13,-1
 390 281 l 1,14,-1
 575 281 l 1,15,-1
 552 173 l 1,16,-1
 367 173 l 1,17,-1
 330 0 l 1,18,-1
 198 0 l 1,19,-1
 235 173 l 1,0,-1
EndSplineSet
EndChar
StartChar: ellipsis
Encoding: 8230 8230 253
Width: 632
GlyphClass: 1
Flags: W
LayerCount: 2
Fore
SplineSet
18 12.5 m 128,-1,1
 -7 37 -7 37 -7 71 c 0,2,3
 -7 106 -7 106 17.5 131 c 128,-1,4
 42 156 42 156 77 156 c 0,5,6
 111 156 111 156 135.5 131 c 128,-1,7
 160 106 160 106 160 71 c 0,8,9
 160 37 160 37 135.5 12.5 c 128,-1,10
 111 -12 111 -12 77 -12 c 256,11,0
 43 -12 43 -12 18 12.5 c 128,-1,1
221 12.5 m 128,-1,13
 196 37 196 37 196 71 c 0,14,15
 196 106 196 106 220.5 131 c 128,-1,16
 245 156 245 156 280 156 c 0,17,18
 314 156 314 156 338.5 131 c 128,-1,19
 363 106 363 106 363 71 c 0,20,21
 363 37 363 37 338.5 12.5 c 128,-1,22
 314 -12 314 -12 280 -12 c 256,23,12
 246 -12 246 -12 221 12.5 c 128,-1,13
424.5 12.5 m 128,-1,25
 400 37 400 37 400 71 c 0,26,27
 400 106 400 106 424.5 131 c 128,-1,28
 449 156 449 156 483 156 c 0,29,30
 518 156 518 156 542.5 131 c 128,-1,31
 567 106 567 106 567 71 c 0,32,33
 567 37 567 37 542.5 12.5 c 128,-1,34
 518 -12 518 -12 483 -12 c 0,35,24
 449 -12 449 -12 424.5 12.5 c 128,-1,25
EndSplineSet
EndChar
StartChar: perthousand
Encoding: 8240 8240 333
Width: 632
GlyphClass: 1
Flags: W
LayerCount: 2
Fore
SplineSet
179 438.5 m 128,-1,1
 149 456 149 456 131.5 486.5 c 128,-1,2
 114 517 114 517 114 552 c 256,3,4
 114 587 114 587 131.5 617 c 128,-1,5
 149 647 149 647 179 664.5 c 128,-1,6
 209 682 209 682 244 682 c 256,7,8
 279 682 279 682 308.5 664.5 c 128,-1,9
 338 647 338 647 355.5 617 c 128,-1,10
 373 587 373 587 373 552 c 256,11,12
 373 517 373 517 355.5 486.5 c 128,-1,13
 338 456 338 456 308.5 438.5 c 128,-1,14
 279 421 279 421 244 421 c 256,15,0
 209 421 209 421 179 438.5 c 128,-1,1
282 512 m 128,-1,17
 298 529 298 529 298 552 c 256,18,19
 298 575 298 575 282 592 c 128,-1,20
 266 609 266 609 244 609 c 0,21,22
 221 609 221 609 205 592 c 128,-1,23
 189 575 189 575 189 552 c 256,24,25
 189 529 189 529 205 512 c 128,-1,26
 221 495 221 495 244 495 c 0,27,16
 266 495 266 495 282 512 c 128,-1,17
87 3.5 m 128,-1,29
 57 21 57 21 39.5 51.5 c 128,-1,30
 22 82 22 82 22 117 c 256,31,32
 22 152 22 152 39.5 182 c 128,-1,33
 57 212 57 212 87 229.5 c 128,-1,34
 117 247 117 247 152 247 c 256,35,36
 187 247 187 247 216.5 229.5 c 128,-1,37
 246 212 246 212 263.5 182 c 128,-1,38
 281 152 281 152 281 117 c 256,39,40
 281 82 281 82 263.5 51.5 c 128,-1,41
 246 21 246 21 216.5 3.5 c 128,-1,42
 187 -14 187 -14 152 -14 c 256,43,28
 117 -14 117 -14 87 3.5 c 128,-1,29
190 77 m 128,-1,45
 206 94 206 94 206 117 c 256,46,47
 206 140 206 140 190 157 c 128,-1,48
 174 174 174 174 152 174 c 0,49,50
 129 174 129 174 113 157 c 128,-1,51
 97 140 97 140 97 117 c 256,52,53
 97 94 97 94 113 77 c 128,-1,54
 129 60 129 60 152 60 c 0,55,44
 174 60 174 60 190 77 c 128,-1,45
367 3.5 m 128,-1,57
 337 21 337 21 319.5 51.5 c 128,-1,58
 302 82 302 82 302 117 c 256,59,60
 302 152 302 152 319.5 182 c 128,-1,61
 337 212 337 212 367 229.5 c 128,-1,62
 397 247 397 247 432 247 c 256,63,64
 467 247 467 247 496.5 229.5 c 128,-1,65
 526 212 526 212 543.5 182 c 128,-1,66
 561 152 561 152 561 117 c 256,67,68
 561 82 561 82 543.5 51.5 c 128,-1,69
 526 21 526 21 496.5 3.5 c 128,-1,70
 467 -14 467 -14 432 -14 c 256,71,56
 397 -14 397 -14 367 3.5 c 128,-1,57
470 77 m 128,-1,73
 486 94 486 94 486 117 c 256,74,75
 486 140 486 140 470 157 c 128,-1,76
 454 174 454 174 432 174 c 0,77,78
 409 174 409 174 393 157 c 128,-1,79
 377 140 377 140 377 117 c 256,80,81
 377 94 377 94 393 77 c 128,-1,82
 409 60 409 60 432 60 c 0,83,72
 454 60 454 60 470 77 c 128,-1,73
70 341 m 1,84,-1
 642 513 l 1,85,-1
 622 419 l 1,86,-1
 50 247 l 1,87,-1
 70 341 l 1,84,-1
EndSplineSet
EndChar
StartChar: fraction
Encoding: 8260 8260 240
Width: 632
GlyphClass: 1
Flags: W
LayerCount: 2
Fore
SplineSet
571 667 m 1,0,-1
 698 668 l 1,1,-1
 98 0 l 1,2,-1
 -30 0 l 1,3,-1
 571 667 l 1,0,-1
EndSplineSet
EndChar
StartChar: Euro
Encoding: 8364 8364 305
Width: 632
GlyphClass: 1
Flags: W
LayerCount: 2
Fore
SplineSet
171 57.5 m 128,-1,1
 110 127 110 127 103 233 c 1,2,-1
 10 233 l 1,3,-1
 58 303 l 1,4,-1
 105 303 l 1,5,6
 108 332 108 332 116 368 c 1,7,-1
 37 368 l 1,8,-1
 87 438 l 1,9,-1
 137 438 l 1,10,11
 177 544 177 544 255 612.5 c 128,-1,12
 333 681 333 681 439 681 c 0,13,14
 520 681 520 681 575 637 c 128,-1,15
 630 593 630 593 651 523 c 1,16,-1
 532 482 l 1,17,18
 520 518 520 518 492 539.5 c 128,-1,19
 464 561 464 561 426 561 c 0,20,21
 377 561 377 561 340 527 c 128,-1,22
 303 493 303 493 280 438 c 1,23,-1
 477 438 l 1,24,-1
 428 368 l 1,25,-1
 257 368 l 1,26,27
 248 335 248 335 245 303 c 1,28,-1
 382 303 l 1,29,-1
 334 233 l 1,30,-1
 244 233 l 1,31,32
 249 177 249 177 277 142.5 c 128,-1,33
 305 108 305 108 358 108 c 0,34,35
 395 108 395 108 425.5 126 c 128,-1,36
 456 144 456 144 477 183 c 1,37,-1
 596 136 l 1,38,39
 552 64 552 64 486.5 26 c 128,-1,40
 421 -12 421 -12 344 -12 c 0,41,0
 232 -12 232 -12 171 57.5 c 128,-1,1
EndSplineSet
EndChar
StartChar: partialdiff
Encoding: 8706 8706 331
Width: 632
GlyphClass: 1
Flags: W
LayerCount: 2
Fore
SplineSet
167 12.5 m 128,-1,1
 115 37 115 37 85.5 83.5 c 128,-1,2
 56 130 56 130 56 192 c 0,3,4
 56 263 56 263 89 325 c 128,-1,5
 122 387 122 387 180 424 c 128,-1,6
 238 461 238 461 311 461 c 0,7,8
 371 461 371 461 416 434 c 128,-1,9
 461 407 461 407 475 353 c 1,10,-1
 476 371 l 1,11,12
 476 467 476 467 401.5 516 c 128,-1,13
 327 565 327 565 209 570 c 1,14,-1
 232 680 l 1,15,16
 392 666 392 666 490 597 c 128,-1,17
 588 528 588 528 588 385 c 0,18,19
 588 299 588 299 558 207.5 c 128,-1,20
 528 116 528 116 460.5 52 c 128,-1,21
 393 -12 393 -12 286 -12 c 0,22,0
 219 -12 219 -12 167 12.5 c 128,-1,1
364 123 m 128,-1,24
 393 147 393 147 407 182.5 c 128,-1,25
 421 218 421 218 421 250 c 0,26,27
 421 295 421 295 395 322 c 128,-1,28
 369 349 369 349 324 349 c 0,29,30
 284 349 284 349 255 327 c 128,-1,31
 226 305 226 305 210.5 271 c 128,-1,32
 195 237 195 237 195 202 c 0,33,34
 195 157 195 157 221 128 c 128,-1,35
 247 99 247 99 293 99 c 0,36,23
 335 99 335 99 364 123 c 128,-1,24
EndSplineSet
EndChar
StartChar: summation
Encoding: 8721 8721 329
Width: 632
GlyphClass: 1
Flags: W
LayerCount: 2
Fore
SplineSet
-8 -43 m 1,0,-1
 297 265 l 1,1,-1
 118 549 l 1,2,-1
 143 668 l 1,3,-1
 668 668 l 1,4,-1
 643 549 l 1,5,-1
 263 549 l 1,6,-1
 452 254 l 1,7,-1
 158 -43 l 1,8,-1
 517 -43 l 1,9,-1
 492 -162 l 1,10,-1
 -33 -162 l 1,11,-1
 -8 -43 l 1,0,-1
EndSplineSet
EndChar
StartChar: minus
Encoding: 8722 8722 312
Width: 632
GlyphClass: 1
Flags: W
LayerCount: 2
Fore
SplineSet
74 308 m 1,0,-1
 584 308 l 1,1,-1
 558 189 l 1,2,-1
 48 189 l 1,3,-1
 74 308 l 1,0,-1
EndSplineSet
EndChar
StartChar: infinity
Encoding: 8734 8734 326
Width: 632
GlyphClass: 1
Flags: W
LayerCount: 2
Fore
SplineSet
53.5 135 m 128,-1,1
 13 171 13 171 13 233 c 0,2,3
 13 281 13 281 35 322.5 c 128,-1,4
 57 364 57 364 96.5 388.5 c 128,-1,5
 136 413 136 413 186 413 c 0,6,7
 228 413 228 413 260 395 c 128,-1,8
 292 377 292 377 325 341 c 1,9,10
 371 378 371 378 405 395.5 c 128,-1,11
 439 413 439 413 478 413 c 0,12,13
 540 413 540 413 580.5 377.5 c 128,-1,14
 621 342 621 342 621 279 c 0,15,16
 621 231 621 231 599 189.5 c 128,-1,17
 577 148 577 148 537.5 123.5 c 128,-1,18
 498 99 498 99 448 99 c 0,19,20
 407 99 407 99 375 117 c 128,-1,21
 343 135 343 135 309 171 c 1,22,23
 263 134 263 134 229.5 116.5 c 128,-1,24
 196 99 196 99 156 99 c 0,25,0
 94 99 94 99 53.5 135 c 128,-1,1
210.5 210.5 m 128,-1,27
 230 223 230 223 260 251 c 1,28,29
 239 284 239 284 223.5 299 c 128,-1,30
 208 314 208 314 181 314 c 0,31,32
 153 314 153 314 136 293.5 c 128,-1,33
 119 273 119 273 119 247 c 0,34,35
 119 225 119 225 132 211.5 c 128,-1,36
 145 198 145 198 168 198 c 256,37,26
 191 198 191 198 210.5 210.5 c 128,-1,27
498.5 218.5 m 128,-1,39
 516 239 516 239 516 265 c 0,40,41
 516 287 516 287 503 300.5 c 128,-1,42
 490 314 490 314 467 314 c 256,43,44
 444 314 444 314 424 301.5 c 128,-1,45
 404 289 404 289 375 261 c 1,46,47
 396 227 396 227 411 212.5 c 128,-1,48
 426 198 426 198 453 198 c 0,49,38
 481 198 481 198 498.5 218.5 c 128,-1,39
EndSplineSet
EndChar
StartChar: greaterequal
Encoding: 8805 8805 319
Width: 632
GlyphClass: 1
Flags: W
LayerCount: 2
Fore
SplineSet
66 258 m 1,0,-1
 419 324 l 1,1,-1
 93 390 l 1,2,-1
 118 505 l 1,3,-1
 595 378 l 1,4,-1
 570 261 l 1,5,-1
 39 134 l 1,6,-1
 66 258 l 1,0,-1
36 119 m 1,7,-1
 540 119 l 1,8,-1
 515 0 l 1,9,-1
 11 0 l 1,10,-1
 36 119 l 1,7,-1
EndSplineSet
EndChar
StartChar: lozenge
Encoding: 9674 9674 334
Width: 632
GlyphClass: 1
Flags: W
LayerCount: 2
Fore
SplineSet
74 314 m 1,0,-1
 415 713 l 1,1,-1
 586 314 l 1,2,-1
 245 -87 l 1,3,-1
 74 314 l 1,0,-1
459 324 m 1,4,-1
 378 512 l 1,5,-1
 200 304 l 1,6,-1
 282 115 l 1,7,-1
 459 324 l 1,4,-1
EndSplineSet
EndChar
StartChar: musicalnote
Encoding: 9834 9834 287
Width: 632
GlyphClass: 1
Flags: W
LayerCount: 2
Fore
SplineSet
124 7.5 m 128,-1,1
 95 25 95 25 78.5 54 c 128,-1,2
 62 83 62 83 62 118 c 256,3,4
 62 153 62 153 79 182.5 c 128,-1,5
 96 212 96 212 125.5 229.5 c 128,-1,6
 155 247 155 247 190 247 c 0,7,8
 223 247 223 247 252 231 c 1,9,-1
 252 668 l 1,10,-1
 330 668 l 1,11,12
 332 640 332 640 345 618.5 c 128,-1,13
 358 597 358 597 379 578.5 c 128,-1,14
 400 560 400 560 444 524 c 0,15,16
 503 475 503 475 536 433 c 128,-1,17
 569 391 569 391 569 337 c 0,18,19
 569 303 569 303 548 266 c 128,-1,20
 527 229 527 229 482 185 c 1,21,-1
 475 186 l 1,22,23
 459 338 459 338 330 399 c 1,24,-1
 330 162 l 2,25,26
 330 77 330 77 290 33.5 c 128,-1,27
 250 -10 250 -10 187 -10 c 0,28,0
 153 -10 153 -10 124 7.5 c 128,-1,1
EndSplineSet
EndChar
StartChar: acutecomb.case
Encoding: 65544 -1 343
Width: 0
GlyphClass: 4
Flags: W
AnchorPoint: "Anchor-5" 399 878 basemark 0
AnchorPoint: "Anchor-5" 354 668 mark 0
AnchorPoint: "Anchor-1" 354 668 mark 0
LayerCount: 2
Fore
SplineSet
475 868 m 128,-1,1
 491 876 491 876 510 876 c 0,2,3
 530 876 530 876 542.5 865 c 128,-1,4
 555 854 555 854 555 838 c 0,5,6
 555 817 555 817 542 802.5 c 128,-1,7
 529 788 529 788 504 772 c 2,8,-1
 435 731 l 1,9,-1
 313 731 l 1,10,-1
 437 841 l 2,11,0
 459 860 459 860 475 868 c 128,-1,1
EndSplineSet
EndChar
StartChar: uni0307.large
Encoding: 65542 -1 339
Width: 0
GlyphClass: 4
Flags: W
AnchorPoint: "Anchor-5" 424 751 basemark 0
AnchorPoint: "Anchor-5" 369 496 mark 0
AnchorPoint: "Anchor-1" 369 496 mark 0
LayerCount: 2
Fore
SplineSet
345 606 m 128,-1,1
 320 631 320 631 320 666 c 256,2,3
 320 701 320 701 345 726 c 128,-1,4
 370 751 370 751 405 751 c 256,5,6
 440 751 440 751 465 726 c 128,-1,7
 490 701 490 701 490 666 c 256,8,9
 490 631 490 631 465 606 c 128,-1,10
 440 581 440 581 405 581 c 256,11,0
 370 581 370 581 345 606 c 128,-1,1
EndSplineSet
EndChar
StartChar: uni030A.case
Encoding: 65550 -1 354
Width: 0
GlyphClass: 4
Flags: W
AnchorPoint: "Anchor-5" 445 858 basemark 0
AnchorPoint: "Anchor-5" 413 668 mark 0
AnchorPoint: "Anchor-1" 413 668 mark 0
LayerCount: 2
Fore
SplineSet
354.5 620.5 m 128,-1,1
 325 638 325 638 308 667.5 c 128,-1,2
 291 697 291 697 291 731 c 0,3,4
 291 784 291 784 328 821 c 128,-1,5
 365 858 365 858 418 858 c 0,6,7
 453 858 453 858 482 841 c 128,-1,8
 511 824 511 824 528.5 795 c 128,-1,9
 546 766 546 766 546 731 c 0,10,11
 546 697 546 697 528.5 667.5 c 128,-1,12
 511 638 511 638 481.5 620.5 c 128,-1,13
 452 603 452 603 418 603 c 256,14,0
 384 603 384 603 354.5 620.5 c 128,-1,1
452.5 697 m 128,-1,16
 466 711 466 711 466 731 c 256,17,18
 466 751 466 751 452.5 765 c 128,-1,19
 439 779 439 779 418 779 c 0,20,21
 399 779 399 779 384.5 765 c 128,-1,22
 370 751 370 751 370 731 c 256,23,24
 370 711 370 711 384 697 c 128,-1,25
 398 683 398 683 418 683 c 0,26,15
 439 683 439 683 452.5 697 c 128,-1,16
EndSplineSet
EndChar
